<svg width="256" height="89" viewBox="0 0 256 89" fill="none" xmlns="http://www.w3.org/2000/svg">
<g filter="url(#filter0_d)">
<rect x="20" y="12" width="216" height="49" rx="24.5" fill="#0079A1"/>
<path d="M103.435 40.0469H98.3256V37.2031H103.146V35.3906H98.3256V32.6719H103.435V30.7266H95.9663V42H103.435V40.0469ZM105.423 42H107.704V36.9453C107.704 36.0078 108.29 35.3516 109.157 35.3516C110.001 35.3516 110.509 35.8828 110.509 36.7812V42H112.704V36.9141C112.704 35.9844 113.274 35.3516 114.142 35.3516C115.024 35.3516 115.509 35.8828 115.509 36.8516V42H117.79V36.2812C117.79 34.5938 116.688 33.4688 115.048 33.4688C113.821 33.4688 112.821 34.1328 112.446 35.1875H112.399C112.118 34.0938 111.274 33.4688 110.063 33.4688C108.923 33.4688 108.024 34.1328 107.673 35.1406H107.626V33.625H105.423V42ZM124.606 33.4922C123.395 33.4922 122.465 34.1016 122.012 35.0859H121.965V33.625H119.715V44.7344H121.997V40.5938H122.043C122.489 41.5391 123.426 42.1328 124.645 42.1328C126.739 42.1328 128.036 40.5078 128.036 37.8125C128.036 35.1094 126.731 33.4922 124.606 33.4922ZM123.84 40.2969C122.723 40.2969 121.989 39.3281 121.989 37.8125C121.989 36.3125 122.723 35.3203 123.84 35.3203C124.981 35.3203 125.7 36.2969 125.7 37.8125C125.7 39.3359 124.981 40.2969 123.84 40.2969ZM133.453 35.1328C134.469 35.1328 135.164 35.8672 135.211 36.9375H131.656C131.734 35.8906 132.453 35.1328 133.453 35.1328ZM135.242 39.4375C135.031 40.0781 134.391 40.4922 133.555 40.4922C132.391 40.4922 131.633 39.6719 131.633 38.4766V38.3359H137.406V37.6406C137.406 35.0938 135.867 33.4453 133.43 33.4453C130.953 33.4453 129.391 35.1797 129.391 37.8516C129.391 40.5312 130.938 42.1797 133.516 42.1797C135.586 42.1797 137.086 41.0781 137.336 39.4375H135.242ZM138.91 42H145.824V40.25H141.808V40.2109L145.73 35.0703V33.625H138.972V35.3672H143.082V35.4141L138.91 40.7031V42ZM150.874 40.4844C150.101 40.4844 149.585 40.0938 149.585 39.4688C149.585 38.875 150.069 38.4922 150.921 38.4297L152.687 38.3203V38.9297C152.687 39.8359 151.866 40.4844 150.874 40.4844ZM150.124 42.1328C151.171 42.1328 152.21 41.6094 152.679 40.7188H152.726V42H154.929V36.2422C154.929 34.5547 153.53 33.4453 151.382 33.4453C149.163 33.4453 147.78 34.5625 147.694 36.1875H149.78C149.89 35.5703 150.429 35.1484 151.28 35.1484C152.14 35.1484 152.687 35.6016 152.687 36.3828V36.9375L150.577 37.0625C148.491 37.1875 147.319 38.0703 147.319 39.5938C147.319 41.1016 148.53 42.1328 150.124 42.1328ZM156.885 42H159.167V37.3203C159.167 36.1406 159.823 35.4531 160.948 35.4531C161.276 35.4531 161.588 35.5078 161.776 35.5859V33.5781C161.62 33.5312 161.393 33.4922 161.128 33.4922C160.143 33.4922 159.432 34.0703 159.135 35.1328H159.088V33.625H156.885V42Z" fill="white"/>
<circle cx="211.5" cy="36.5" r="21.5" fill="#00AEE8"/>
<path d="M204.5 37H218.5" stroke="white" stroke-width="2" stroke-linecap="round" stroke-linejoin="round"/>
<path d="M211.5 30L218.5 37L211.5 44" stroke="white" stroke-width="2" stroke-linecap="round" stroke-linejoin="round"/>
</g>
<defs>
<filter id="filter0_d" x="0" y="0" width="256" height="89" filterUnits="userSpaceOnUse" color-interpolation-filters="sRGB">
<feFlood flood-opacity="0" result="BackgroundImageFix"/>
<feColorMatrix in="SourceAlpha" type="matrix" values="0 0 0 0 0 0 0 0 0 0 0 0 0 0 0 0 0 0 127 0"/>
<feOffset dy="8"/>
<feGaussianBlur stdDeviation="10"/>
<feColorMatrix type="matrix" values="0 0 0 0 0 0 0 0 0 0.47451 0 0 0 0 0.631373 0 0 0 0.42 0"/>
<feBlend mode="normal" in2="BackgroundImageFix" result="effect1_dropShadow"/>
<feBlend mode="normal" in="SourceGraphic" in2="effect1_dropShadow" result="shape"/>
</filter>
</defs>
</svg>
