<svg width="32" height="32" viewBox="0 0 32 32" fill="none" xmlns="http://www.w3.org/2000/svg">
<circle cx="16" cy="16" r="16" fill="#EA63AC"/>
<path d="M19.3333 10.3334H12.6666C10.8257 10.3334 9.33331 11.8258 9.33331 13.6667V20.3334C9.33331 22.1743 10.8257 23.6667 12.6666 23.6667H19.3333C21.1743 23.6667 22.6666 22.1743 22.6666 20.3334V13.6667C22.6666 11.8258 21.1743 10.3334 19.3333 10.3334Z" fill="white"/>
<path d="M18.6667 16.58C18.7489 17.1348 18.6542 17.7014 18.3958 18.1993C18.1375 18.6972 17.7288 19.1009 17.2278 19.3531C16.7267 19.6052 16.159 19.693 15.6052 19.6039C15.0514 19.5148 14.5398 19.2533 14.1432 18.8567C13.7466 18.4601 13.4852 17.9485 13.3961 17.3948C13.3069 16.841 13.3947 16.2732 13.6469 15.7722C13.8991 15.2712 14.3028 14.8625 14.8007 14.6041C15.2985 14.3458 15.8652 14.251 16.42 14.3333C16.986 14.4172 17.5099 14.6809 17.9145 15.0855C18.319 15.4901 18.5828 16.014 18.6667 16.58Z" stroke="#EA63AC" stroke-width="1.5" stroke-linecap="round" stroke-linejoin="round"/>
<path d="M19.6667 13.3334H19.6734" stroke="#EA63AC" stroke-width="1.5" stroke-linecap="round" stroke-linejoin="round"/>
</svg>
