<svg width="32" height="32" viewBox="0 0 32 32" fill="none" xmlns="http://www.w3.org/2000/svg">
<circle cx="16" cy="16" r="16" fill="#1FA5D1"/>
<path d="M18.6667 13.3334C19.7276 13.3334 20.745 13.7548 21.4951 14.5049C22.2453 15.2551 22.6667 16.2725 22.6667 17.3334V22H20V17.3334C20 16.9798 19.8595 16.6406 19.6095 16.3906C19.3594 16.1405 19.0203 16 18.6667 16C18.3131 16 17.9739 16.1405 17.7239 16.3906C17.4738 16.6406 17.3334 16.9798 17.3334 17.3334V22H14.6667V17.3334C14.6667 16.2725 15.0881 15.2551 15.8383 14.5049C16.5884 13.7548 17.6058 13.3334 18.6667 13.3334Z" fill="white"/>
<path d="M12 14H9.33331V22H12V14Z" fill="white"/>
<path d="M10.6666 12C11.403 12 12 11.4031 12 10.6667C12 9.93033 11.403 9.33337 10.6666 9.33337C9.93027 9.33337 9.33331 9.93033 9.33331 10.6667C9.33331 11.4031 9.93027 12 10.6666 12Z" fill="white"/>
</svg>
