<svg width="325" height="291" viewBox="0 0 325 291" fill="none" xmlns="http://www.w3.org/2000/svg">
<g clip-path="url(#clip0)">
<path opacity="0.14" d="M200.832 247.992C205.75 243.975 209.806 239.192 213.099 233.672C221.515 219.387 234.92 208.787 250.682 203.726C279.967 194.393 302.38 168.492 305.851 136.022C310.318 93.4679 280.167 54.6567 237.841 48.5441C219.758 45.9397 202.245 49.5705 187.555 57.7992C168.852 68.2607 146.336 69.0571 126.726 60.6014C98.8016 48.5304 71.0944 48.7894 52.1599 64.0975C18.9033 91.0409 25.4211 153.932 66.4459 204.727C107.471 255.523 167.728 274.763 200.832 247.992Z" fill="#00B2B7"/>
</g>
<g clip-path="url(#clip1)">
<path d="M318.525 158.975C318.503 158.952 318.48 158.93 318.458 158.907C316.068 156.025 312.867 154.494 309.17 154.494C307.862 154.494 306.442 154.674 304.797 155.057C303.94 155.237 303.128 155.485 302.339 155.8C301.663 155.26 300.874 154.809 300.017 154.494H299.995C299.071 154.156 298.056 153.976 296.997 153.976C293.841 153.976 291.947 155.305 290.888 156.43C290.144 157.241 289.557 158.096 289.174 158.997C288.047 157.804 286.74 156.813 285.297 156.048C285.229 156.003 285.162 155.98 285.094 155.935C283.358 155.124 281.6 154.719 279.841 154.719C277.497 154.719 275.22 155.44 273.056 156.836C273.011 156.881 272.943 156.903 272.898 156.948C271.861 157.691 270.914 158.547 270.058 159.47C270.148 156.701 270.193 154.854 270.238 153.931C270.238 153.864 270.238 153.819 270.238 153.751C270.238 149.631 268.141 147.492 266.834 146.569C265.481 145.578 263.881 145.038 262.055 144.97C261.694 144.925 261.356 144.903 260.995 144.903C260.409 144.903 259.823 144.97 259.282 145.083L259.327 143.191C259.507 135.581 259.643 130.695 259.733 128.692V128.489C259.733 127.183 259.44 126.057 258.876 125.112C257.704 123.13 255.81 122.027 253.556 122.027H253.534C253.308 122.004 253.105 122.004 252.902 122.004C251.73 122.004 250.693 122.32 249.859 122.928C248.732 123.693 247.357 125.157 247.086 127.813C246.996 128.489 246.906 129.277 246.838 130.178C245.441 129.277 243.75 128.737 241.834 128.534L241.653 128.511H240.932C238.249 128.511 235.815 129.435 233.696 131.236L233.673 131.258C233.312 131.573 232.952 131.934 232.614 132.294C232.681 130.178 232.726 128.782 232.749 128.106V127.971C232.749 124.909 231.193 123.333 230.224 122.635C229.232 121.892 228.037 121.509 226.685 121.442C226.414 121.397 226.166 121.374 225.918 121.374C224.791 121.374 223.777 121.667 222.92 122.252C221.77 123.018 220.373 124.459 220.08 127.183C219.967 127.971 219.877 129.007 219.809 130.29C218.276 130.425 216.833 130.83 215.503 131.506C213.429 132.519 211.739 134.118 210.409 136.257L147.829 141.188C147.13 140.287 146.116 139.296 144.583 138.531C147.987 132.902 150.421 126.598 151.841 119.663C153.983 109.148 153.645 99.5342 150.872 91.091C149.272 86.2052 146.769 82.4001 143.41 79.8108C139.961 77.154 135.723 75.7806 130.786 75.7806C120.552 75.7806 115.209 80.4638 112.549 84.404C112.323 84.7192 112.12 85.0344 111.918 85.3496C111.106 81.9498 109.257 79.8559 107.634 78.6175C104.839 76.4786 101.66 75.5329 98.1888 75.8031L97.9634 75.8256C94.4692 76.2534 91.4484 77.9196 89.2166 80.6664L89.0588 80.8691L88.9236 81.0717C88.9236 81.0717 88.6305 81.4995 88.0669 82.2875C87.5034 83.0756 86.8947 83.9311 86.2184 84.8543C85.6323 85.6648 85.0236 86.5429 84.3248 87.466L84.3022 87.5111C83.8063 88.1865 83.3554 88.8395 82.9271 89.4024C82.1832 90.4155 81.552 91.2936 81.0335 92.1042C77.8324 96.6973 78.5537 100.48 79.2751 102.326C80.5601 105.591 83.13 107.707 86.5115 108.27V128.129C86.4664 128.084 86.4213 128.016 86.3537 127.971C84.9109 126.417 83.3329 125.427 81.6647 125.044C80.4699 124.774 79.5456 124.661 78.7566 124.661C77.5168 124.661 76.2543 124.886 74.9919 125.314C74.9468 125.337 74.9018 125.337 74.8567 125.359C73.5041 125.877 72.3318 126.553 71.3399 127.386C71.1371 127.138 70.9567 126.935 70.7538 126.755C69.4914 125.539 67.9134 124.909 66.155 124.886C65.907 124.864 65.6591 124.864 65.4111 124.841C65.1857 124.819 64.9377 124.841 64.7123 124.864C63.8782 124.954 63.0892 125.179 62.3678 125.539C61.4886 125.382 60.6094 125.292 59.7302 125.292C58.062 125.292 56.4389 125.607 54.8835 126.237C53.4858 126.8 52.2008 127.633 51.0511 128.669C51.0962 127.318 51.1187 126.282 51.1638 125.562C51.1638 125.517 51.1638 125.449 51.1638 125.404V125.314C51.1638 123.851 50.8257 122.567 50.1945 121.509C48.887 119.303 46.7003 118.019 44.1529 118.019H44.1304C43.9049 117.997 43.6795 117.997 43.4541 117.997C41.8084 117.997 40.6587 118.537 39.9599 119.032C38.6749 119.911 37.142 121.554 36.8039 124.526C36.3981 127.543 36.1952 132.654 36.1952 140.107C36.1952 142.178 36.2177 143.979 36.2628 145.533C35.2484 144.903 34.0761 144.497 32.7912 144.362C32.7236 144.362 32.6785 144.34 32.6108 144.34C29.8831 144.137 27.4935 144.047 25.5323 144.047C24.1572 144.047 22.9849 144.092 21.9705 144.16C18.6115 144.43 17.552 144.565 16.6278 145.06L16.3572 145.173C16.2671 145.218 16.1994 145.24 16.1093 145.285C15.7035 145.488 15.2752 145.758 14.7792 146.073C14.1706 146.456 13.5844 146.884 13.0434 147.357C12.2093 148.1 11.5555 148.933 11.1272 149.878C10.4735 151.252 10.1579 152.895 10.1579 154.899C10.1353 157.466 10.1128 161.496 10.0902 166.877C10.0677 174.51 10.0226 181.512 9.95499 187.727C9.95499 187.749 9.95499 187.749 9.95499 187.772C9.95499 190.248 10.8793 192.477 12.6602 194.188C12.7052 194.234 12.7729 194.279 12.818 194.346C13.5168 194.977 14.396 195.539 15.5006 196.057C15.5457 196.08 15.6133 196.102 15.6584 196.125L16.7856 196.62C17.011 196.71 17.259 196.8 17.4844 196.868C17.8225 196.958 18.048 196.98 19.9191 197.161C21.1815 197.273 22.8046 197.341 24.9236 197.341C27.8768 197.341 31.0103 197.161 34.1663 196.823C34.2114 196.823 34.2565 196.823 34.279 196.8C36.105 196.553 37.6605 195.81 38.8778 194.639C40.298 195.607 41.9437 196.102 43.7021 196.102C44.2882 196.102 44.739 196.08 45.1223 196.035C45.1674 196.035 45.2124 196.035 45.235 196.012C46.8581 195.787 48.3459 195.022 49.6534 193.761C50.3974 193.018 50.9835 192.14 51.3893 191.104C51.9528 191.712 52.6291 192.252 53.4181 192.702C54.3424 193.243 55.4019 193.558 56.5967 193.648C56.6193 193.648 56.6418 193.648 56.6869 193.648L58.3325 193.761C58.4227 193.761 58.5129 193.761 58.6031 193.761C60.2938 193.761 61.7817 193.31 62.9764 192.5C63.2244 192.928 63.4949 193.31 63.8105 193.671C63.8782 193.738 63.9458 193.806 64.0134 193.873C65.4336 195.292 67.2596 196.057 69.266 196.08L71.9261 196.147C71.9712 196.147 71.9937 196.147 72.0388 196.147C72.6249 196.147 73.2336 196.057 74.2029 195.787C74.4058 195.742 74.5862 195.675 74.789 195.607C74.9018 197.228 75.037 198.534 75.2174 199.547C75.2174 199.592 75.2399 199.615 75.2399 199.66C76.1642 204.185 78.6665 205.874 80.5826 206.504C81.5294 206.82 82.4763 206.977 83.4231 206.977C83.4907 206.977 83.5583 206.977 83.6034 206.977L84.415 206.932C84.9109 206.91 85.3843 206.797 85.8352 206.617C89.1941 205.289 90.4565 203.037 90.9074 201.393C90.9074 201.348 90.9299 201.326 90.9299 201.281C91.2455 200.02 91.4033 198.939 91.4033 197.994L91.516 194.008C93.342 193.693 95.0779 193.153 96.7235 192.41C98.527 191.577 100.195 190.383 101.683 188.852C101.706 188.83 101.706 188.83 101.728 188.807C101.999 188.515 102.269 188.222 102.54 187.907V188.132C102.54 190.248 103.329 192.162 104.839 193.716C104.907 193.783 104.952 193.828 105.019 193.896C106.665 195.404 108.716 196.215 110.926 196.215H111.534C111.602 196.215 111.67 196.215 111.737 196.215C114.961 196.057 118.613 193.986 119.244 188.605C119.244 188.56 119.244 188.515 119.267 188.492C119.605 184.755 119.808 180.387 119.898 175.456L119.92 175.478C120.011 175.591 120.078 175.703 120.168 175.816C121.205 177.009 122.445 177.91 123.843 178.428C125.06 178.878 126.232 179.126 127.36 179.126C127.743 179.126 128.104 179.103 128.487 179.058C128.645 179.036 128.78 179.013 128.938 178.991C129.05 178.968 129.141 178.946 129.253 178.923C129.389 181.738 129.997 184.394 131.079 186.781C132.409 189.798 134.528 192.14 137.369 193.761C140.051 195.292 142.757 196.057 145.394 196.057C147.558 196.057 149.587 195.584 151.413 194.661C152.969 193.873 154.411 192.883 155.696 191.712C155.741 191.667 155.787 191.622 155.832 191.577C156.215 192.41 156.733 193.175 157.432 193.873C157.5 193.941 157.545 193.986 157.613 194.053C159.258 195.562 161.287 196.372 163.474 196.372H164.082C164.195 196.372 164.33 196.372 164.443 196.35C166.359 196.192 168.095 195.382 169.47 193.986C170.169 193.265 170.733 192.41 171.116 191.464C171.409 192.275 171.882 193.04 172.491 193.761C172.559 193.851 172.649 193.941 172.739 194.008C174.182 195.449 176.053 196.215 178.149 196.215H179.276C179.457 196.237 179.637 196.26 179.84 196.26C180.404 196.26 181.035 196.17 181.959 195.945C183.379 195.607 184.664 194.796 185.724 193.558C186.017 193.22 186.265 192.883 186.49 192.5C189.263 195.427 192.374 196.125 194.673 196.125C194.719 196.125 194.741 196.125 194.786 196.125C197.221 196.057 199.475 195.292 201.572 193.828C203.014 195.157 204.84 195.877 206.824 195.877C206.869 195.877 206.937 195.877 206.982 195.877L207.929 195.832C208.335 195.81 208.74 195.742 209.124 195.629C211.152 194.977 212.685 193.828 213.632 192.252C213.655 192.207 213.677 192.185 213.7 192.14C213.97 191.644 214.196 191.126 214.399 190.586C215.481 191.824 216.788 192.883 218.276 193.738C220.959 195.269 223.664 196.035 226.301 196.035C228.466 196.035 230.494 195.562 232.32 194.639C233.876 193.851 235.319 192.86 236.604 191.689C237.302 191.036 237.979 190.361 238.61 189.663C238.678 189.775 238.723 189.888 238.79 190.001C238.813 190.068 238.858 190.113 238.903 190.158C242.037 195.067 246.072 196.102 248.89 196.102C248.935 196.102 248.957 196.102 249.002 196.102C251.437 196.035 253.691 195.269 255.788 193.806C257.231 195.134 259.057 195.855 261.04 195.855C261.085 195.855 261.153 195.855 261.198 195.855L262.145 195.81C262.551 195.787 262.957 195.72 263.34 195.607C265.369 194.954 266.902 193.806 267.848 192.23C267.871 192.185 267.894 192.162 267.916 192.117C268.187 191.644 268.389 191.149 268.592 190.654C268.93 191.081 269.291 191.464 269.652 191.824C272.537 194.594 275.716 196.012 279.075 196.012H279.391C279.481 196.012 279.571 196.012 279.661 196.012C283.403 195.787 286.627 194.301 289.219 191.622C289.603 192.387 290.099 193.108 290.73 193.738C290.797 193.806 290.842 193.851 290.91 193.918C292.556 195.427 294.607 196.237 296.816 196.237H297.425C297.493 196.237 297.56 196.237 297.628 196.237C300.852 196.08 304.504 194.008 305.135 188.627C305.135 188.582 305.135 188.537 305.157 188.515C305.495 184.777 305.698 180.409 305.789 175.478L305.811 175.501C305.901 175.613 305.969 175.726 306.059 175.839C307.096 177.032 308.336 177.932 309.734 178.45C310.951 178.901 312.123 179.148 313.25 179.148C313.634 179.148 313.994 179.126 314.377 179.081C314.535 179.058 314.671 179.036 314.828 179.013C317.624 178.405 319.675 176.604 320.644 173.925C320.667 173.857 320.69 173.79 320.712 173.7C321.253 171.898 321.524 170.075 321.524 168.273C321.569 164.671 320.554 161.541 318.525 158.975ZM33.3322 181.04C33.197 181.04 33.0617 181.04 32.9264 181.062L32.5432 181.107C32.5207 181.107 32.5207 181.107 32.4981 181.107C30.6947 181.287 28.9588 181.4 27.3357 181.467C27.3583 180.432 27.3583 179.351 27.3808 178.225H29.6577C31.8218 178.225 33.7831 177.437 35.316 175.929C35.316 175.929 35.316 175.929 35.3386 175.906C35.3386 177.775 35.3611 179.576 35.3611 181.31C34.6848 181.13 34.0085 181.04 33.3322 181.04ZM35.2709 163.275V164.603C33.738 163.14 31.7993 162.352 29.6577 162.352H27.5386C27.5612 161.294 27.5612 160.303 27.5837 159.402C28.6883 159.447 29.9057 159.582 31.2132 159.785C31.2808 159.785 31.3484 159.808 31.3935 159.808C31.7542 159.853 32.1374 159.875 32.5207 159.875C33.8282 159.875 35.0455 159.582 36.105 159.02C35.6316 160.145 35.2709 161.541 35.2709 163.275ZM126.278 99.9845L126.3 99.8494C126.503 97.7105 127.134 96.0444 128.261 94.6034C128.329 95.2563 128.397 96.1119 128.419 97.2152C128.464 100.097 128.239 103.339 127.72 106.964C127.563 106.514 127.36 106.041 127.134 105.591C126.3 103.925 126.03 102.101 126.278 99.9845ZM112.301 117.074C115.231 119.685 118.252 119.798 119.898 119.595L120.078 119.573L120.259 119.528C122.513 119.1 124.429 118.042 125.849 116.443C124.542 121.712 122.941 126.125 120.98 129.885L120.935 129.975C119.154 133.577 117.486 135.018 116.516 135.176C114.871 135.334 113.473 135.671 112.278 136.144V117.074H112.301ZM86.5115 137.923C86.4889 137.945 86.4889 137.923 86.5115 137.923C86.4889 137.923 86.4889 137.923 86.5115 137.923ZM92.1473 174.983C92.1698 173.61 92.2149 172.281 92.2374 171.02C92.3727 171.313 92.4854 171.741 92.4854 172.394C92.4854 173.339 92.3727 174.195 92.1473 174.983Z" fill="#0D2638"/>
<path d="M137.775 86.0474C137.775 86.0474 142.757 86.7003 144.876 95.3462C146.972 103.992 144.921 115.677 143.951 119.235C142.982 122.792 141.133 129.389 137.775 129.592C134.416 129.795 134.957 125.314 134.957 125.314L137.887 118.267C137.887 118.267 141.81 101.133 139.24 97.0348C136.692 92.9596 134.934 90.3478 134.934 90.3478C134.934 90.3478 134.01 86.5652 137.775 86.0474Z" fill="white"/>
<path d="M104.704 84.5388H99.2483V118.289H104.704V84.5388Z" fill="white"/>
<path d="M98.5945 81.2517C100.714 81.0941 102.562 81.6569 104.275 82.9628C105.989 84.2687 106.778 86.2726 106.778 89.0419C106.778 91.3835 106.778 96.4945 106.778 104.172C106.778 111.94 106.778 119.64 106.778 127.34C106.778 135.108 106.778 140.534 106.778 143.777C106.778 147.019 105.56 149.293 103.058 150.419C100.623 151.544 98.1888 151.634 95.6865 150.509C93.2518 149.45 92.0345 147.199 92.0345 143.799C92.0345 141.052 92.0345 135.378 92.0345 126.71C92.0345 118.132 92.0345 109.463 92.0345 100.795C90.5015 102.416 88.9461 103.069 87.4131 102.821C85.9478 102.574 84.9785 101.763 84.4149 100.322C83.8513 98.8586 84.2571 97.0799 85.6322 95.1436C86.286 94.0854 87.4131 92.6444 88.7883 90.6856C90.2536 88.6592 91.4709 86.9705 92.5079 85.507C93.1616 84.6064 93.4772 84.1336 93.4772 84.1336C94.8524 82.3999 96.5656 81.4993 98.5945 81.2517ZM103.622 108.383C104.027 107.887 104.275 107.414 104.275 106.852V87.2632C104.275 86.7004 104.027 86.205 103.622 85.7322C103.216 85.3269 102.652 85.1693 102.089 85.1693C101.525 85.1693 101.029 85.3269 100.556 85.7322C100.15 86.2275 99.9922 86.7004 99.9922 87.2632V106.852C99.9922 107.414 100.15 107.91 100.556 108.383C101.052 108.788 101.525 108.945 102.089 108.945C102.652 108.945 103.216 108.788 103.622 108.383ZM103.622 117.051C104.027 116.556 104.275 116.083 104.275 115.52V113.989C104.275 113.426 104.027 112.931 103.622 112.458C103.216 112.053 102.652 111.895 102.089 111.895C101.525 111.895 101.029 112.053 100.556 112.458C100.15 112.953 99.9922 113.426 99.9922 113.989V115.52C99.9922 116.083 100.15 116.578 100.556 117.051C101.052 117.456 101.525 117.614 102.089 117.614C102.652 117.614 103.216 117.456 103.622 117.051Z" fill="#93C12F"/>
<path d="M145.62 92.7571C148.122 100.367 148.37 108.946 146.431 118.515C144.492 127.993 140.502 136.076 134.596 142.718C136.467 142.718 137.752 142.718 138.654 142.718C141.156 142.718 142.869 143.439 143.681 144.835C144.492 146.298 144.492 147.739 143.681 149.135C142.779 150.599 141.179 151.319 138.654 151.319C137.932 151.319 136.377 151.319 133.875 151.319C131.44 151.319 128.847 151.319 126.007 151.319C123.257 151.319 120.822 151.319 118.703 151.319C116.584 151.319 115.547 151.319 115.547 151.319C113.203 151.162 111.737 150.194 111.016 148.572C110.362 146.951 110.52 145.263 111.512 143.642C112.571 141.93 114.42 140.962 117.193 140.737C120.507 140.332 123.437 137.585 125.939 132.474C128.532 127.453 130.471 121.554 131.936 114.912C133.311 108.27 134.032 102.371 133.965 97.1701C133.897 91.969 132.905 89.0646 130.967 88.4341C128.126 88.0289 125.782 88.9295 124.001 91.181C122.22 93.4325 121.16 96.1118 120.845 99.354C120.439 102.596 120.935 105.501 122.22 108.09C122.941 109.553 123.031 110.927 122.31 112.053C121.656 113.268 120.597 113.921 119.312 114.169C117.937 114.327 116.629 113.764 115.412 112.39C113.383 109.644 112.414 105.838 112.571 100.975C112.729 96.1118 114.194 91.6538 117.103 87.5335C119.943 83.3232 124.564 81.2968 130.809 81.2968C138.158 81.2518 143.095 85.0568 145.62 92.7571ZM140.75 126.282C141.066 125.562 141.404 124.819 141.72 124.098C141.877 123.535 141.877 122.973 141.629 122.477C141.381 121.914 140.976 121.577 140.412 121.351C139.849 121.126 139.353 121.104 138.789 121.351C138.293 121.599 137.887 122.004 137.662 122.567C137.414 123.22 137.166 123.873 136.85 124.436C136.602 124.999 136.602 125.562 136.76 126.057C137.008 126.62 137.324 127.025 137.887 127.273C138.203 127.431 138.541 127.521 138.789 127.521C139.601 127.498 140.254 127.093 140.75 126.282ZM142.847 118.83C143.253 118.515 143.501 118.109 143.568 117.614C144.628 112.998 145.033 107.977 144.785 102.641C144.538 97.3727 143.072 92.6895 140.57 88.5467C140.254 88.0514 139.758 87.8262 139.262 87.6461C138.699 87.556 138.135 87.6461 137.639 87.9613C137.076 88.2765 136.828 88.7719 136.67 89.3347C136.58 89.8976 136.67 90.393 136.986 90.9558C139.172 94.4457 140.299 98.6561 140.48 103.429C140.728 108.203 140.322 112.661 139.42 116.623C139.262 117.276 139.33 117.749 139.668 118.244C139.984 118.74 140.48 119.055 141.043 119.213C141.201 119.213 141.359 119.213 141.539 119.213C142.035 119.235 142.441 119.145 142.847 118.83Z" fill="#93C12F"/>
<path d="M43.7246 153.909C43.3639 153.909 43.0032 153.841 42.6425 153.728C41.7408 153.436 41.1321 152.558 40.794 151.072C40.4558 149.225 40.298 145.555 40.298 140.062C40.298 132.812 40.5009 127.791 40.8841 124.976C41.0194 123.761 41.4928 122.86 42.3269 122.32C42.6199 122.117 43.0032 122.004 43.4991 122.004C43.6569 122.004 43.8373 122.004 43.9951 122.027H44.1754C45.3026 122.027 46.1367 122.522 46.7228 123.535C46.9933 123.963 47.1286 124.549 47.1286 125.269V125.359C47.0384 127.543 46.9031 132.699 46.7003 140.805L46.4523 150.351C46.4523 152.152 45.8436 153.278 44.6488 153.751L44.3107 153.886L43.7246 153.909Z" fill="#93C12F"/>
<path d="M65.9296 152.963L65.6817 152.941L64.7574 152.828C64.0586 152.738 63.495 152.423 63.0667 151.905C62.6383 151.387 62.3904 150.734 62.3678 149.969L62.3453 147.334C61.6915 148.325 60.9927 149.203 60.2488 149.991C59.5049 150.779 58.7158 151.387 57.8817 151.837C57.0477 152.288 56.2136 152.513 55.3569 152.513H54.9286C53.0575 152.31 51.5922 151.207 50.5552 149.226C49.7211 147.469 49.2928 145.488 49.2928 143.259C49.2928 142.786 49.3604 141.705 49.4732 140.062C49.6084 138.418 50.3523 136.437 51.7049 134.14C52.9899 132.091 54.5454 130.673 56.4164 129.907C57.4534 129.48 58.558 129.277 59.7077 129.277C60.8574 129.277 62.0071 129.457 63.1794 129.84C63.6979 129.254 64.3516 128.917 65.1406 128.827C65.4337 128.849 65.7268 128.872 66.0198 128.872H66.0649C66.7863 128.872 67.4175 129.119 67.9134 129.592C68.4094 130.088 68.6799 130.763 68.6799 131.619V131.866C68.6348 132.947 68.5897 134.658 68.5447 137.022C68.4996 140.422 68.4545 143.597 68.4545 146.524C68.4545 147.897 68.4545 149.068 68.477 149.991V150.036C68.477 150.959 68.1614 151.702 67.5528 152.288C67.1019 152.76 66.5609 152.963 65.9296 152.963ZM56.1008 147.92C56.3037 147.92 56.732 147.717 57.3858 147.289L57.4083 147.312C58.4453 146.208 59.4598 144.655 60.4066 142.674C61.3534 140.67 62.0071 138.508 62.3678 136.167C62.3904 135.311 62.4129 134.523 62.4129 133.78L61.6915 133.532C61.5337 133.51 61.3759 133.51 61.2407 133.51C60.6095 133.51 60.0459 133.69 59.5274 134.073C58.6257 134.748 57.8592 135.739 57.2505 137.022C56.6419 138.328 56.191 139.702 55.8754 141.143C55.5823 142.561 55.4245 143.822 55.4245 144.948C55.4245 145.781 55.4922 146.434 55.6049 146.884C55.7402 147.424 55.898 147.785 56.1008 147.92Z" fill="#93C12F"/>
<path d="M78.3509 153.256C77.359 153.256 76.4122 153.098 75.5105 152.783C73.0307 151.77 71.6556 149.879 71.4076 147.087V146.974C71.4076 146.299 71.6556 145.736 72.1516 145.308C72.5573 144.925 73.0533 144.745 73.6394 144.745L74.0452 144.768C75.1723 145.06 75.8261 145.736 75.9613 146.817C76.0741 148.19 76.8856 148.866 78.4185 148.866C79.0047 148.866 79.5457 148.708 80.0642 148.415C80.3572 148.235 80.5376 148.077 80.6052 147.942C80.6954 147.807 80.7179 147.672 80.7179 147.537C80.7179 147.199 80.4925 146.794 80.0642 146.299C79.6359 145.803 78.8469 145.15 77.6972 144.317L77.066 143.845C75.7359 142.876 74.5411 141.773 73.4816 140.49C72.4221 139.206 71.8134 137.72 71.6331 135.987L71.6105 135.559C71.6105 134.186 72.0163 132.902 72.8053 131.709C73.5943 130.538 74.7666 129.637 76.322 129.052C77.1561 128.759 77.9677 128.624 78.7792 128.624C79.2526 128.624 79.9289 128.714 80.7856 128.917C81.6422 129.12 82.5214 129.705 83.4006 130.673C84.2798 131.574 84.7306 132.407 84.7306 133.15C84.7306 133.578 84.5954 133.983 84.3023 134.343C83.8514 134.951 83.2202 135.244 82.4087 135.244C81.5295 135.244 80.8532 134.884 80.4023 134.163C80.2896 133.96 80.1544 133.758 79.974 133.578C79.8613 133.533 79.7486 133.533 79.6359 133.533C79.1174 133.533 78.7341 133.645 78.4636 133.87C78.2607 134.095 78.1706 134.388 78.1706 134.726C78.1706 134.951 78.2157 135.176 78.3284 135.356C78.7341 136.032 79.2526 136.662 79.8388 137.27C80.4474 137.878 81.3266 138.689 82.4763 139.724C83.2428 140.355 84.0318 141.165 84.8884 142.156C85.7225 143.147 86.3086 144.272 86.6017 145.556C86.6468 145.848 86.6919 146.141 86.6919 146.434C86.6919 147.47 86.3312 148.573 85.6098 149.766C85.0237 150.599 84.2798 151.297 83.3555 151.86C82.3636 152.445 81.1913 152.873 79.8388 153.143V153.121C79.3428 153.211 78.8469 153.256 78.3509 153.256Z" fill="#93C12F"/>
<path d="M199.813 73.1915C200.548 73.1915 201.143 72.5967 201.143 71.8631C201.143 71.1294 200.548 70.5347 199.813 70.5347C199.079 70.5347 198.483 71.1294 198.483 71.8631C198.483 72.5967 199.079 73.1915 199.813 73.1915Z" fill="#244E80"/>
<path d="M182.974 67.4277L184.394 71.4354C184.461 71.6155 184.574 71.7506 184.732 71.8182L188.294 73.4168C188.79 73.6419 188.79 74.4525 188.294 74.6776L184.732 76.2762C184.574 76.3438 184.461 76.4788 184.394 76.659L182.974 80.6442C182.771 81.2071 182.072 81.2071 181.869 80.6442L180.449 76.659C180.381 76.4788 180.268 76.3438 180.111 76.2762L176.549 74.6551C176.053 74.43 176.053 73.6194 176.549 73.3943L180.111 71.7957C180.268 71.7281 180.381 71.593 180.449 71.4129L181.869 67.4052C182.072 66.8648 182.771 66.8648 182.974 67.4277Z" fill="#80AEFF"/>
<path d="M248.303 102.641L249.363 105.613C249.408 105.749 249.498 105.839 249.611 105.884L252.249 107.077C252.632 107.235 252.632 107.842 252.249 108L249.611 109.193C249.498 109.238 249.408 109.351 249.363 109.464L248.303 112.436C248.146 112.863 247.627 112.863 247.469 112.436L246.41 109.464C246.365 109.328 246.275 109.238 246.162 109.193L243.524 108C243.141 107.842 243.141 107.235 243.524 107.077L246.162 105.884C246.275 105.839 246.365 105.726 246.41 105.613L247.469 102.641C247.627 102.214 248.146 102.214 248.303 102.641Z" fill="#80AEFF"/>
<path d="M233.132 114.642C233.866 114.642 234.462 114.047 234.462 113.314C234.462 112.58 233.866 111.985 233.132 111.985C232.397 111.985 231.802 112.58 231.802 113.314C231.802 114.047 232.397 114.642 233.132 114.642Z" fill="#244E80"/>
<path d="M220.959 115.498C220.959 115.498 227.97 107.415 226.842 105.276C225.715 103.137 208.154 109.328 208.154 109.328C208.154 109.328 210.724 99.5117 206.711 99.6468C205.449 99.6918 203.736 101.268 201.955 103.407C200.49 102.101 199.002 101.065 199.002 101.065C199.678 98.9038 198.213 85.3271 196.477 84.2914C194.741 83.2782 184.123 90.5731 184.123 90.5731C184.123 90.5731 176.729 85.3946 174.091 86.0025C171.431 86.633 174.43 101.426 174.43 101.426C174.43 101.426 168.072 101.043 166.382 104.6C164.691 108.158 174.114 115.07 174.114 115.07L195.124 113.201C195.124 113.201 195.214 113.156 195.372 113.088C194.47 114.597 193.907 115.588 193.907 115.588L199.61 134.073C199.61 134.073 218.592 138.035 220.53 135.716C221.522 134.523 220.17 132.136 218.614 130.11C217.419 128.556 218.344 126.282 220.305 126.012C224.723 125.404 230.449 124.414 230.945 122.995C231.667 120.924 220.959 115.498 220.959 115.498Z" fill="#A1E8C3"/>
<path d="M217.262 79.1355C215.571 78.5726 213.745 79.3606 213.023 80.9817C207.974 92.3519 199.791 101.178 189.308 108.203C187.302 109.531 187.279 112.481 189.24 113.854L189.827 114.259C190.954 115.07 192.464 115.092 193.636 114.372C204.592 107.482 213.023 97.1477 219.29 83.8412C220.147 81.9949 219.2 79.7884 217.262 79.1355Z" fill="#C49A8B"/>
<path d="M207.072 117.726C203.443 112.863 196.544 111.85 191.675 115.475C190.142 116.601 189.015 118.064 188.271 119.663C188.046 119.28 187.82 118.92 187.55 118.56C187.279 118.199 186.986 117.862 186.693 117.546C188.451 117.299 190.165 116.623 191.698 115.475C196.567 111.85 197.581 104.96 193.952 100.097C190.323 95.2337 183.424 94.2205 178.555 97.8455C177.022 98.9713 175.895 100.435 175.151 102.033C174.926 101.651 174.7 101.29 174.43 100.93C170.8 96.0668 163.902 95.0536 159.033 98.6786C154.163 102.304 153.149 109.193 156.778 114.057C157.004 114.349 157.252 114.642 157.5 114.912C155.899 115.205 154.344 115.858 152.946 116.893C148.077 120.518 147.062 127.408 150.692 132.271C150.849 132.474 151.007 132.677 151.165 132.857C149.88 133.217 148.64 133.802 147.513 134.635C142.644 138.26 141.629 145.15 145.259 150.013C148.888 154.877 155.786 155.89 160.656 152.265C161.783 151.432 162.707 150.396 163.406 149.27C163.541 149.473 163.677 149.698 163.834 149.901C167.464 154.764 174.362 155.777 179.231 152.152C180.629 151.117 181.711 149.811 182.455 148.37C182.635 148.685 182.861 149 183.086 149.293C186.716 154.156 193.614 155.169 198.483 151.544C203.352 147.919 204.367 141.03 200.737 136.167C200.467 135.806 200.174 135.469 199.881 135.153C201.639 134.906 203.352 134.23 204.885 133.082C209.687 129.479 210.702 122.59 207.072 117.726ZM175.534 112.098C175.76 112.48 175.985 112.841 176.256 113.201C176.526 113.561 176.819 113.899 177.112 114.214C175.354 114.462 173.641 115.137 172.108 116.286C170.71 117.321 169.628 118.627 168.884 120.068C168.704 119.753 168.478 119.438 168.253 119.145C168.027 118.852 167.779 118.56 167.531 118.289C169.132 117.997 170.687 117.344 172.085 116.308C173.641 115.16 174.768 113.696 175.534 112.098ZM163.248 137.517C163.113 137.315 162.978 137.09 162.82 136.887C162.662 136.684 162.504 136.482 162.347 136.302C163.631 135.941 164.871 135.356 165.998 134.523C167.396 133.487 168.478 132.181 169.222 130.74C169.403 131.056 169.628 131.371 169.853 131.663C170.079 131.956 170.327 132.249 170.575 132.519C168.974 132.812 167.419 133.465 166.021 134.5C164.871 135.356 163.97 136.392 163.248 137.517ZM182.049 137.72C181.869 137.405 181.643 137.09 181.418 136.797C181.193 136.504 180.945 136.212 180.697 135.941C182.297 135.649 183.853 134.996 185.25 133.96C186.783 132.834 187.91 131.371 188.654 129.772C188.88 130.155 189.105 130.515 189.376 130.875C189.646 131.236 189.939 131.573 190.232 131.889C188.474 132.136 186.761 132.812 185.228 133.96C183.875 134.973 182.793 136.257 182.049 137.72Z" fill="#96A8EA"/>
<path d="M207.072 117.726C204.998 114.957 201.887 113.426 198.663 113.313C200.151 113.741 201.504 114.619 202.496 115.948C204.885 119.145 204.209 123.671 201.008 126.057C197.92 128.354 193.636 127.813 191.179 124.931C190.593 126.823 189.872 128.691 189.195 130.56C189.24 130.628 189.286 130.673 189.331 130.74C190.728 130.673 192.171 131.213 193.524 131.889C191.855 131.641 190.12 131.753 188.474 132.294C190.954 132.159 193.479 133.217 195.079 135.378C197.604 138.778 196.905 143.597 193.501 146.118C190.097 148.64 185.273 147.942 182.748 144.542C182.184 143.799 181.801 142.989 181.553 142.133C181.508 141.007 181.486 139.904 181.463 138.778C181.463 138.283 181.441 137.788 181.441 137.292C179.389 137.225 177.338 137.135 175.286 136.977C177.405 140.354 176.594 144.835 173.348 147.244C169.921 149.788 165.097 149.068 162.549 145.668C162.347 145.42 162.189 145.15 162.031 144.88C161.918 142.133 161.918 139.364 161.986 136.617C160.182 136.909 158.356 137.315 156.553 137.63C158.627 140.805 157.883 145.083 154.817 147.357C151.616 149.743 147.085 149.068 144.695 145.871C143.636 144.452 143.185 142.763 143.275 141.12C142.621 144.114 143.23 147.357 145.191 150.013C148.821 154.877 155.719 155.89 160.588 152.265C161.264 151.77 161.873 151.184 162.392 150.576C162.279 149.27 162.189 147.987 162.099 146.681C162.459 147.807 163 148.91 163.767 149.901C167.396 154.764 174.294 155.777 179.164 152.152C180.268 151.342 181.147 150.351 181.846 149.27C181.801 148.55 181.756 147.829 181.734 147.109C182.072 147.874 182.478 148.595 182.996 149.293C186.625 154.156 193.524 155.169 198.393 151.544C203.262 147.919 204.277 141.03 200.647 136.166C200.377 135.806 200.084 135.469 199.791 135.153C201.549 134.906 203.262 134.23 204.795 133.082C209.687 129.479 210.702 122.59 207.072 117.726Z" fill="#709CE8"/>
<path d="M185.25 133.937C190.12 130.313 191.134 123.423 187.505 118.56C185.408 115.745 182.23 114.214 178.961 114.124C180.697 114.619 182.275 115.678 183.447 117.231C186.265 121.014 185.476 126.372 181.688 129.187C177.901 132.001 172.536 131.213 169.718 127.431C168.568 125.877 168.005 124.053 168.027 122.252C167.171 125.382 167.734 128.872 169.831 131.686C173.483 136.549 180.381 137.562 185.25 133.937Z" fill="#709CE8"/>
<path d="M227.136 117.006C225.896 116.218 224.633 115.52 223.641 114.98C224.25 114.214 225.016 113.246 225.738 112.21C228.421 108.405 229.21 106.086 228.375 104.487C227.406 102.664 224.769 102.866 220.53 103.835C217.397 104.555 213.7 105.681 211.152 106.514C210.927 106.581 210.769 106.491 210.679 106.424C210.589 106.356 210.476 106.221 210.521 106.019C210.747 104.172 210.747 102.664 210.499 101.448C214.421 96.5396 217.87 90.9108 220.846 84.584C221.477 83.2556 221.5 81.7245 220.914 80.3736C220.328 79.0227 219.2 77.9645 217.825 77.4917C215.278 76.6361 212.528 77.8294 211.446 80.2836C208.831 86.1826 205.291 91.5187 200.783 96.3144C200.647 94.2881 200.399 92.4193 200.354 92.0365C199.295 83.9535 197.965 83.188 197.334 82.8053C196.094 82.0623 194.29 82.2874 188.745 85.5521C186.896 86.6554 185.16 87.7811 184.101 88.4791C183.334 87.9838 182.185 87.2408 180.922 86.5428C176.481 84.0661 174.655 84.0886 173.663 84.3138C171.048 84.9217 170.913 88.6818 171.522 94.1305C171.612 94.8735 171.702 95.639 171.792 96.337C170.44 95.5714 168.952 95.0536 167.374 94.8284C164.015 94.3331 160.656 95.1887 157.906 97.215C155.178 99.2414 153.397 102.213 152.901 105.591C152.473 108.518 153.059 111.422 154.547 113.921C153.577 114.327 152.676 114.845 151.819 115.475C149.091 117.501 147.31 120.473 146.814 123.851C146.386 126.71 146.95 129.57 148.37 132.024C147.671 132.361 147.017 132.767 146.364 133.24C140.728 137.427 139.555 145.42 143.749 151.049C145.777 153.773 148.753 155.552 152.135 156.047C155.516 156.543 158.852 155.687 161.603 153.661C162.234 153.188 162.82 152.67 163.338 152.107C165.3 154.179 167.87 155.53 170.733 155.935C174.092 156.43 177.45 155.575 180.201 153.548C181.057 152.895 181.824 152.175 182.478 151.364C184.506 153.571 187.189 154.899 189.984 155.327C193.208 155.8 196.612 155.034 199.43 152.94C202.158 150.914 203.939 147.942 204.435 144.565C204.84 141.728 204.322 138.913 202.924 136.459C204.48 136.729 206.373 137.067 208.335 137.36C208.583 137.405 208.831 137.427 209.078 137.472C219.155 138.891 220.959 137.878 221.838 136.819C224.047 134.185 220.733 130.02 219.651 128.646C219.471 128.444 219.539 128.219 219.561 128.106C219.606 127.971 219.719 127.813 219.967 127.791C229.751 126.462 231.937 125.269 232.546 123.58C233.335 121.419 230.945 119.393 227.136 117.006ZM214.602 81.6795C214.917 80.9815 215.661 80.5763 216.405 80.6888C216.518 80.7113 216.608 80.7339 216.721 80.7564C217.194 80.914 217.555 81.2517 217.735 81.702C217.938 82.1523 217.915 82.6477 217.713 83.098C212.46 94.2655 205.674 103.137 197.491 109.531C197.897 107.775 197.942 105.928 197.581 104.127C205.179 97.6879 210.792 90.2803 214.602 81.6795ZM203.781 131.708C202.744 132.496 201.572 133.014 200.377 133.285C197.627 130.808 193.975 129.705 190.413 130.087C191.81 126.8 191.81 122.973 190.21 119.64C190.819 118.582 191.653 117.614 192.712 116.848C194.696 115.362 197.153 114.754 199.588 115.115C202.045 115.475 204.209 116.758 205.674 118.762C207.162 120.744 207.771 123.198 207.41 125.629C207.05 128.083 205.765 130.245 203.781 131.708ZM177.045 102.011C177.676 100.93 178.51 99.9844 179.547 99.2189C181.531 97.7329 183.988 97.125 186.423 97.4852C188.88 97.8455 191.044 99.1288 192.509 101.133C195.575 105.23 194.719 111.039 190.616 114.102C189.579 114.89 188.406 115.407 187.212 115.678C185.363 113.989 183.041 112.908 180.516 112.525C179.412 112.368 178.307 112.345 177.225 112.458C178.645 109.148 178.645 105.343 177.045 102.011ZM174.881 87.7361C175.467 87.8262 176.774 88.1864 179.254 89.5824C181.328 90.7307 183.109 91.9915 183.109 91.9915C183.695 92.3968 184.484 92.4193 185.093 91.9915C185.115 91.969 187.392 90.4154 189.939 88.8619C193.276 86.858 194.854 86.2051 195.553 86.0024C195.936 86.9481 196.499 89.2446 196.973 92.9597C197.334 95.9317 197.446 98.3183 197.424 99.6017C197.063 99.9394 196.702 100.277 196.319 100.592C196.026 100.052 195.688 99.5116 195.305 98.9938C193.276 96.2694 190.3 94.4907 186.919 93.9954C183.56 93.5 180.201 94.3556 177.45 96.382C176.752 96.8998 176.12 97.4852 175.557 98.1157C175.399 97.1025 175.219 95.9317 175.061 94.7159C174.52 90.2353 174.723 88.4116 174.881 87.7361ZM160.002 100.029C161.986 98.5435 164.443 97.9355 166.878 98.2958C169.335 98.656 171.499 99.9394 172.964 101.943C176.03 106.041 175.174 111.85 171.071 114.912C166.968 117.974 161.152 117.119 158.086 113.021C156.598 111.039 155.989 108.585 156.35 106.154C156.711 103.677 157.996 101.515 160.002 100.029ZM159.529 150.891C157.545 152.377 155.088 152.985 152.653 152.625C150.196 152.265 148.032 150.982 146.566 148.978C143.501 144.88 144.357 139.071 148.46 136.009C149.136 135.514 149.835 135.131 150.579 134.838C152.54 136.729 154.998 137.9 157.59 138.283C158.672 138.441 159.777 138.463 160.859 138.328C160.43 139.319 160.137 140.377 159.98 141.48C159.596 144.159 160.047 146.839 161.265 149.18C160.769 149.833 160.205 150.396 159.529 150.891ZM151.999 131.236C150.511 129.254 149.903 126.8 150.263 124.368C150.624 121.914 151.909 119.753 153.915 118.289C154.817 117.614 155.832 117.119 156.891 116.826C158.807 118.605 161.197 119.708 163.699 120.068C164.781 120.226 165.886 120.248 166.968 120.113C166.54 121.104 166.247 122.162 166.089 123.265C165.706 125.854 166.134 128.421 167.261 130.718C166.675 131.641 165.908 132.451 165.007 133.149C160.881 136.189 155.043 135.333 151.999 131.236ZM178.127 150.779C176.143 152.265 173.686 152.873 171.251 152.513C168.794 152.152 166.63 150.869 165.164 148.865C163.677 146.884 163.068 144.43 163.429 141.998C163.789 139.544 165.074 137.382 167.081 135.919C168.005 135.243 169.019 134.748 170.056 134.455C171.973 136.234 174.362 137.337 176.864 137.698C177.946 137.855 179.051 137.878 180.156 137.743C178.735 141.097 178.758 144.97 180.426 148.347C179.818 149.27 179.051 150.103 178.127 150.779ZM171.251 130.65C169.763 128.669 169.155 126.215 169.515 123.783C169.876 121.329 171.161 119.167 173.167 117.704C175.151 116.218 177.608 115.61 180.043 115.97C182.5 116.331 184.664 117.614 186.13 119.618C189.195 123.716 188.339 129.524 184.236 132.587C180.111 135.604 174.294 134.748 171.251 130.65ZM197.379 150.194C193.276 153.256 187.46 152.4 184.394 148.302C181.328 144.204 182.185 138.395 186.287 135.333C188.339 133.802 190.819 133.262 193.163 133.6C195.508 133.937 197.739 135.176 199.272 137.225C200.76 139.206 201.369 141.66 201.008 144.092C200.647 146.546 199.362 148.707 197.379 150.194ZM219.493 124.391C218.051 124.594 216.878 125.494 216.337 126.845C215.796 128.196 216.022 129.682 216.924 130.83C218.569 132.879 219.02 134.073 219.11 134.568C218.434 134.748 216.112 135.018 208.943 133.983L208.831 133.96C208.177 133.87 207.5 133.757 206.869 133.667C209.011 131.708 210.409 129.074 210.837 126.147C211.333 122.792 210.476 119.438 208.447 116.691C206.463 114.034 203.578 112.278 200.287 111.737C202.676 109.824 204.953 107.707 207.095 105.388C207.095 105.456 207.072 105.523 207.072 105.591C206.914 106.919 207.433 108.225 208.47 109.103C209.507 109.959 210.904 110.229 212.212 109.824C219.584 107.437 223.416 106.694 225.039 106.604C224.769 107.279 224.137 108.54 222.604 110.679C221.162 112.683 219.674 114.394 219.651 114.417C219.291 114.822 219.155 115.362 219.268 115.88C219.381 116.398 219.719 116.848 220.192 117.096C223.912 118.987 227.541 121.284 228.826 122.545C227.789 122.927 225.332 123.58 219.493 124.391Z" fill="#0D2638" stroke="#0D2638" stroke-width="0.458807" stroke-miterlimit="10"/>
<path d="M160.633 108.856C160.498 108.834 160.385 108.811 160.25 108.766C159.326 108.406 158.852 107.37 159.213 106.447C159.281 106.289 160.723 102.574 164.916 100.998C165.841 100.638 166.9 101.111 167.238 102.056C167.599 102.98 167.126 104.038 166.179 104.375C163.541 105.366 162.595 107.708 162.572 107.73C162.279 108.518 161.445 108.991 160.633 108.856Z" fill="white"/>
<path d="M173.889 126.44C173.753 126.417 173.641 126.395 173.505 126.35C172.581 125.99 172.108 124.954 172.468 124.008C172.536 123.851 173.979 120.136 178.172 118.559C179.096 118.199 180.156 118.672 180.494 119.618C180.855 120.541 180.381 121.599 179.434 121.937C176.819 122.927 175.873 125.224 175.827 125.314C175.512 126.102 174.7 126.552 173.889 126.44Z" fill="white"/>
<path d="M153.735 128.444C152.766 128.309 152.09 127.408 152.202 126.418C152.428 124.639 153.284 122.838 154.569 121.329C155.223 120.586 156.373 120.496 157.117 121.149C157.861 121.802 157.951 122.95 157.297 123.693C156.463 124.639 155.922 125.81 155.787 126.868C155.651 127.859 154.75 128.557 153.758 128.422C153.758 128.444 153.758 128.444 153.735 128.444Z" fill="white"/>
<path d="M181.531 105.456C181.193 105.411 180.855 105.253 180.584 105.028C179.84 104.375 179.772 103.227 180.449 102.484C181.644 101.133 183.357 100.12 185.273 99.6245C186.242 99.3768 187.234 99.9397 187.482 100.908C187.73 101.876 187.167 102.867 186.197 103.114C184.98 103.43 183.875 104.082 183.154 104.893C182.726 105.343 182.117 105.546 181.531 105.456Z" fill="white"/>
<path d="M24.9687 193.221C23.0074 193.221 21.4971 193.176 20.3924 193.063C19.2878 192.951 18.6792 192.883 18.589 192.861L17.4618 192.365C16.7405 192.005 16.1769 191.667 15.7711 191.307C14.8468 190.406 14.396 189.326 14.396 188.042C14.4636 181.783 14.5087 174.826 14.5312 167.171C14.5538 161.744 14.5763 157.759 14.5989 155.192C14.5989 153.842 14.7792 152.761 15.1624 151.995C15.3202 151.613 15.5908 151.275 15.974 150.937C16.3572 150.599 16.7405 150.307 17.1462 150.059C17.552 149.811 17.9127 149.586 18.2283 149.429L18.6792 149.226C18.8144 149.136 20.0317 149.001 22.3537 148.798C23.2554 148.731 24.3149 148.686 25.5548 148.686C27.4259 148.686 29.6802 148.776 32.3178 148.978C33.3773 149.091 34.2114 149.541 34.82 150.284C35.3611 150.915 35.6316 151.658 35.6316 152.513L35.5865 153.031C35.4738 153.977 35.0906 154.697 34.4143 155.215C33.9183 155.62 33.2871 155.823 32.5206 155.823C32.3178 155.823 32.0923 155.8 31.8894 155.778C29.9282 155.463 28.1698 155.328 26.5693 155.328C25.2392 155.328 24.1346 155.485 23.3005 155.823C23.2103 158.412 23.1427 162.15 23.0976 167.081H29.6577C30.6721 167.081 31.5287 167.418 32.2276 168.094C32.9264 168.769 33.2871 169.602 33.2871 170.593C33.2871 171.561 32.9264 172.394 32.2276 173.07C31.5287 173.768 30.6721 174.105 29.6577 174.105H23.03C22.9849 178.721 22.9173 182.751 22.8496 186.151C23.4808 186.174 24.2022 186.196 25.0363 186.196C27.4484 186.196 30.086 186.061 32.9264 185.768L33.3097 185.723C34.1212 185.723 34.8877 185.971 35.6091 186.489C36.3079 187.007 36.7588 187.75 36.9166 188.718C36.9391 188.875 36.9616 189.055 36.9616 189.236C36.9616 190.024 36.6911 190.789 36.1275 191.465C35.564 192.163 34.775 192.568 33.738 192.725C30.7172 193.063 27.8091 193.221 24.9687 193.221Z" fill="#0079A1"/>
<path d="M72.1741 192.072L69.4689 192.005C68.5897 192.005 67.8683 191.689 67.2371 191.082C66.7412 190.519 66.4932 189.821 66.4932 188.965V188.605C66.6059 186.488 66.6736 184.462 66.6736 182.503C66.6736 175.546 66.1776 170.705 65.1632 167.958C64.3291 169.917 63.6979 172.191 63.2019 174.848C62.7285 177.482 62.3904 179.936 62.2326 182.188C62.21 183.404 62.1649 184.687 62.0973 186.016C61.917 188.425 60.7898 189.641 58.7158 189.641L57.0702 189.528C56.5066 189.483 56.0557 189.348 55.695 189.145C54.7032 188.605 54.1621 187.862 54.0269 186.894C53.9592 186.488 53.9141 186.151 53.9141 185.881L53.9592 185.565C54.0269 184.214 54.0719 182.863 54.0719 181.558C54.0719 179.036 53.9141 176.334 53.5985 173.43C53.2829 170.525 52.7644 168.476 52.0205 167.305C51.9303 167.373 51.8176 167.486 51.6598 167.666C49.9466 170.998 48.6841 175.636 47.85 181.603C47.8275 184.192 47.7824 186.376 47.7148 188.155C47.6246 189.393 47.2639 190.316 46.6553 190.924C46.0466 191.532 45.3928 191.87 44.7165 191.96C44.5137 191.982 44.1981 192.005 43.7697 192.005C42.6426 192.005 41.6507 191.599 40.8166 190.811C40.1177 190.113 39.7571 189.28 39.7571 188.357V184.732C39.7571 180.995 39.7345 176.964 39.712 172.664L39.6669 165.842V163.59C39.6669 161.519 40.4108 160.123 41.9212 159.403C42.4397 159.155 43.116 159.02 43.9275 159.02C45.0547 159.02 46.024 159.403 46.8131 160.146C47.6246 161.001 48.0529 162.014 48.0529 163.253V163.455C48.4136 162.915 48.7969 162.442 49.2252 162.037C50.7581 160.483 52.3587 159.718 54.0494 159.718H54.1847C57.0927 159.718 59.2118 161.632 60.5193 165.482C61.173 164.108 61.962 162.915 62.8412 161.969C64.3742 160.461 65.9747 159.718 67.6655 159.718C69.2209 159.718 70.5735 160.303 71.7458 161.474C74.1804 164.153 75.5105 169.624 75.6908 177.888C75.7359 179.148 75.7584 180.409 75.7584 181.648C75.7584 183.922 75.6908 186.151 75.5781 188.312C75.4879 189.483 75.1949 190.339 74.7215 190.856C74.248 191.374 73.7296 191.712 73.1885 191.87C72.6926 192.005 72.3544 192.072 72.1741 192.072Z" fill="#0079A1"/>
<path d="M83.5583 202.902C83.0849 202.902 82.6115 202.812 82.1156 202.654C80.8982 202.249 80.0867 201.078 79.6809 199.097C79.23 196.553 79.0046 191.554 79.0046 184.102C79.0046 174.24 79.2526 167.395 79.7711 163.568C79.9289 161.902 80.5826 160.708 81.7098 159.965C82.093 159.673 82.6115 159.538 83.2653 159.538C83.4456 159.538 83.671 159.56 83.8965 159.583H84.1444C85.0236 159.583 85.7901 159.83 86.4664 160.348L86.5791 160.393L86.6242 160.348C88.2698 159.605 89.9155 159.222 91.5837 159.222C92.0796 159.222 93.0039 159.312 94.3565 159.493C95.7091 159.673 97.3096 160.506 99.1582 162.014C101.999 164.446 103.554 167.778 103.847 171.989L103.892 172.867C103.892 175.186 103.464 177.527 102.607 179.846C101.751 182.188 100.443 184.259 98.7073 186.106C97.5801 187.254 96.3628 188.132 95.0328 188.74C92.7785 189.776 90.2762 190.293 87.5485 190.293H87.3681L87.1652 198.241C87.1652 198.827 87.0525 199.592 86.8045 200.538C86.5115 201.551 85.6999 202.317 84.3473 202.857L83.5583 202.902ZM87.7288 183.336C90.2536 183.336 92.2374 182.638 93.7253 181.22C95.8443 178.878 96.9039 176.041 96.9039 172.709C96.9039 170.48 96.1825 168.724 94.7172 167.463C93.7027 166.697 92.7559 166.292 91.8542 166.27C90.975 166.27 90.2987 166.405 89.8028 166.652C88.856 167.103 88.2473 167.576 87.9317 168.071C87.819 172.394 87.7063 177.482 87.571 183.359H87.7288V183.336Z" fill="#0079A1"/>
<path d="M111.692 192.163H111.084C109.979 192.163 109.01 191.78 108.153 190.992C107.454 190.271 107.093 189.416 107.093 188.448V185.566C107.093 181.648 107.071 177.393 107.026 172.777L106.981 163.096C106.981 162.758 107.048 162.285 107.184 161.632C107.319 160.979 107.68 160.326 108.288 159.673C108.942 158.975 109.911 158.615 111.174 158.615C111.715 158.615 112.211 158.705 112.662 158.863C113.969 159.358 114.826 160.326 115.209 161.745C116.652 160.686 118.23 159.966 119.966 159.606C121.273 159.29 122.423 159.155 123.392 159.155C125.759 159.155 127.72 160.101 129.276 161.97C130.696 163.748 131.395 165.955 131.395 168.544C131.395 169.895 131.192 171.291 130.764 172.71C130.313 173.948 129.456 174.713 128.149 175.006C127.946 175.029 127.72 175.051 127.517 175.051C126.931 175.051 126.278 174.916 125.556 174.646C124.835 174.376 124.204 173.925 123.663 173.295C123.167 172.597 122.919 171.854 122.919 171.111C122.919 170.661 123.009 170.21 123.212 169.738C123.302 169.445 123.347 169.152 123.347 168.859C123.347 167.891 122.986 167.036 122.287 166.248C121.904 165.887 121.589 165.73 121.296 165.73C121.205 165.73 121.093 165.752 120.98 165.797L120.935 165.73C120.168 165.91 119.402 166.293 118.681 166.856C117.035 168.139 116.02 170.728 115.66 174.601C115.592 179.914 115.367 184.508 115.029 188.448C114.758 190.834 113.653 192.073 111.692 192.163Z" fill="#0079A1"/>
<path d="M145.552 192.005C143.681 192.005 141.72 191.42 139.691 190.271C137.662 189.123 136.197 187.479 135.25 185.34C134.258 183.111 133.762 180.635 133.762 177.91C133.762 175.479 134.123 173.092 134.844 170.773C135.971 167.081 137.684 164.266 139.961 162.285C142.058 160.506 144.402 159.605 147.017 159.605H147.784C150.106 159.831 151.999 160.551 153.465 161.722C155.178 163.118 156.035 164.942 156.035 167.261C156.035 170.773 154.118 173.813 150.286 176.379C149.317 177.01 148.19 177.595 146.882 178.136C145.575 178.676 144.29 179.036 142.982 179.194V180.072C142.982 182.211 143.365 183.944 144.109 185.273C144.583 186.061 145.259 186.466 146.161 186.466C146.499 186.466 146.859 186.421 147.288 186.331C148.595 185.723 149.97 184.507 151.368 182.706C151.909 182.053 152.585 181.715 153.42 181.715C153.983 181.715 154.502 181.873 154.998 182.211C155.696 182.774 156.057 183.494 156.057 184.35C156.057 184.913 155.877 185.453 155.494 185.971C154.727 186.962 153.848 187.907 152.856 188.808C151.864 189.708 150.759 190.474 149.565 191.082C148.37 191.69 147.017 192.005 145.552 192.005ZM143.884 173.61C145.98 172.98 147.784 171.921 149.272 170.435C150.286 169.4 150.782 168.364 150.782 167.306C150.782 166.675 150.602 166.202 150.263 165.887C150.083 165.797 149.858 165.752 149.632 165.752C149.429 165.752 149.114 165.797 148.708 165.887C148.302 165.977 147.716 166.45 146.972 167.306C145.62 168.927 144.583 171.043 143.884 173.61Z" fill="#0079A1"/>
<path d="M164.218 192.32H163.609C162.527 192.32 161.558 191.938 160.724 191.15C160.025 190.429 159.664 189.596 159.664 188.695L159.709 185.07C159.709 181.31 159.687 177.28 159.641 172.957L159.596 163.703C159.596 162.398 160.025 161.294 160.859 160.394C161.558 159.696 162.55 159.335 163.789 159.335C164.871 159.335 165.796 159.696 166.54 160.416C167.419 161.272 167.847 162.307 167.847 163.546V163.839C167.78 164.717 167.734 166.022 167.734 167.824C170.259 162.465 173.167 159.763 176.504 159.718C177.834 159.718 179.029 160.214 180.02 161.227C181.012 162.06 181.824 163.906 182.478 166.788C183.199 169.85 183.56 174.173 183.56 179.779C183.56 182.324 183.492 185.206 183.357 188.448C183.244 189.619 182.951 190.474 182.478 191.014C182.004 191.555 181.508 191.893 180.99 192.028C180.471 192.163 180.111 192.23 179.908 192.23L179.863 192.185H178.194C177.27 192.185 176.504 191.87 175.895 191.262C175.489 190.789 175.264 190.339 175.196 189.889C175.174 189.641 175.151 189.393 175.151 189.191L175.196 188.763C175.331 185.768 175.399 183.089 175.399 180.77C175.399 178.158 175.264 175.546 175.016 172.912C174.768 170.278 174.362 168.499 173.844 167.554L173.641 167.734C172.401 169.85 171.319 172.372 170.372 175.276C169.448 178.203 168.726 180.883 168.208 183.359C167.712 185.746 167.464 187.344 167.464 188.11V188.178C167.464 188.313 167.441 188.403 167.419 188.47C167.351 189.686 166.991 190.609 166.382 191.262C165.841 191.893 165.097 192.253 164.218 192.32Z" fill="#0079A1"/>
<path d="M194.786 192.073C192.261 192.073 190.187 190.767 188.519 188.155C187.031 185.588 186.287 182.571 186.287 179.081C186.287 175.456 187.031 172.146 188.542 169.152C190.007 166.405 191.923 164.469 194.29 163.298C195.958 162.442 197.784 162.037 199.746 162.037C200.287 162.037 201.279 162.127 202.744 162.33C202.902 158.255 203.105 155.305 203.353 153.526C203.51 151.883 204.142 150.712 205.246 150.014C205.652 149.721 206.17 149.586 206.802 149.586C206.982 149.586 207.207 149.609 207.433 149.654C208.492 149.654 209.349 149.901 210.048 150.419C211.107 151.14 211.626 152.356 211.626 154.044C211.513 156.836 211.198 167.869 210.702 187.097C210.702 188.358 210.454 189.438 209.958 190.294C209.552 190.947 208.853 191.442 207.839 191.78L206.892 191.825C205.832 191.825 204.953 191.397 204.254 190.519C203.601 189.753 203.172 188.335 202.992 186.286C200.557 190.069 197.83 192.005 194.786 192.073ZM195.395 186.286C195.598 186.264 196.049 186.061 196.702 185.678C197.897 184.327 199.024 182.458 200.061 180.094C201.098 177.73 201.82 175.186 202.203 172.439C202.203 170.863 202.225 169.31 202.248 167.756C201.752 167.621 201.369 167.553 201.121 167.553C200.467 167.553 199.791 167.846 199.137 168.409C198.461 168.972 197.717 170.075 196.86 171.719C196.139 173.25 195.598 175.028 195.237 177.077C194.876 178.969 194.719 180.747 194.719 182.391C194.719 182.526 194.719 183.066 194.741 184.012C194.719 184.935 194.944 185.701 195.395 186.286Z" fill="#0079A1"/>
<path d="M226.414 192.005C224.543 192.005 222.582 191.42 220.553 190.271C218.524 189.123 217.059 187.479 216.112 185.34C215.12 183.111 214.624 180.635 214.624 177.91C214.624 175.479 214.985 173.092 215.706 170.773C216.833 167.081 218.547 164.266 220.824 162.285C222.92 160.506 225.264 159.605 227.879 159.605H228.646C230.968 159.831 232.862 160.551 234.327 161.722C236.04 163.118 236.897 164.942 236.897 167.261C236.897 170.773 234.981 173.813 231.148 176.379C230.179 177.01 229.052 177.595 227.744 178.136C226.437 178.676 225.152 179.036 223.844 179.194V180.072C223.844 182.211 224.228 183.944 224.971 185.273C225.445 186.061 226.121 186.466 227.023 186.466C227.361 186.466 227.722 186.421 228.15 186.331C229.458 185.723 230.833 184.507 232.23 182.706C232.771 182.053 233.448 181.715 234.282 181.715C234.845 181.715 235.364 181.873 235.86 182.211C236.559 182.774 236.919 183.494 236.919 184.35C236.919 184.913 236.739 185.453 236.356 185.971C235.589 186.962 234.71 187.907 233.718 188.808C232.726 189.708 231.622 190.474 230.427 191.082C229.232 191.69 227.902 192.005 226.414 192.005ZM224.746 173.61C226.843 172.98 228.646 171.921 230.134 170.435C231.148 169.4 231.644 168.364 231.644 167.306C231.644 166.675 231.464 166.202 231.126 165.887C230.945 165.797 230.72 165.752 230.494 165.752C230.292 165.752 229.976 165.797 229.57 165.887C229.164 165.977 228.578 166.45 227.834 167.306C226.482 168.927 225.467 171.043 224.746 173.61Z" fill="#0079A1"/>
<path d="M248.98 192.073C246.455 192.073 244.381 190.767 242.713 188.155C241.225 185.588 240.481 182.571 240.481 179.081C240.481 175.456 241.225 172.146 242.735 169.152C244.201 166.405 246.117 164.469 248.484 163.298C250.152 162.442 251.978 162.037 253.939 162.037C254.48 162.037 255.472 162.127 256.938 162.33C257.095 158.255 257.298 155.305 257.546 153.526C257.704 151.883 258.335 150.712 259.44 150.014C259.846 149.721 260.364 149.586 260.995 149.586C261.176 149.586 261.401 149.609 261.627 149.654C262.686 149.654 263.543 149.901 264.242 150.419C265.301 151.14 265.82 152.356 265.82 154.044C265.707 156.836 265.391 167.869 264.895 187.097C264.895 188.358 264.647 189.438 264.151 190.294C263.746 190.947 263.047 191.442 262.032 191.78L261.086 191.825C260.026 191.825 259.147 191.397 258.448 190.519C257.794 189.753 257.366 188.335 257.186 186.286C254.751 190.069 252.001 192.005 248.98 192.073ZM249.566 186.286C249.769 186.264 250.22 186.061 250.873 185.678C252.068 184.327 253.195 182.458 254.232 180.094C255.269 177.73 255.991 175.186 256.374 172.439C256.374 170.863 256.397 169.31 256.419 167.756C255.923 167.621 255.54 167.553 255.292 167.553C254.638 167.553 253.962 167.846 253.308 168.409C252.632 168.972 251.888 170.075 251.031 171.719C250.31 173.25 249.769 175.028 249.408 177.077C249.047 178.969 248.89 180.747 248.89 182.391C248.89 182.526 248.89 183.066 248.912 184.012C248.89 184.935 249.138 185.701 249.566 186.286Z" fill="#0079A1"/>
<path d="M279.458 191.959H279.143C276.933 191.959 274.814 190.969 272.763 189.01C271.613 187.907 270.621 186.151 269.765 183.764C269.133 182.03 268.818 179.846 268.818 177.212C268.818 169.444 271.027 163.973 275.445 160.798C276.888 159.853 278.331 159.38 279.819 159.38C280.923 159.38 282.051 159.65 283.2 160.19C285.274 161.294 286.897 163.005 288.07 165.301C289.67 168.454 290.459 171.988 290.459 175.929C290.459 177.685 290.279 179.418 289.941 181.107C289.242 184.394 287.979 186.984 286.153 188.875C284.327 190.766 282.096 191.802 279.458 191.959ZM280.382 186.466C281.825 186.015 282.907 184.957 283.651 183.291C279.977 180.184 277.97 175.591 277.587 169.489C276.821 171.606 276.415 173.79 276.415 176.041C276.415 178.63 276.708 180.769 277.271 182.458C277.835 184.169 278.511 185.317 279.278 185.97C279.639 186.308 279.999 186.466 280.382 186.466ZM285.026 178.518C285.116 177.662 285.162 176.829 285.162 176.019C285.162 174.308 284.936 172.461 284.463 170.48C283.989 168.499 283.133 166.923 281.893 165.684V166.855C281.893 168.431 282.073 170.277 282.411 172.439C282.749 174.578 283.629 176.604 285.026 178.518Z" fill="#0079A1"/>
<path d="M297.47 192.163H296.861C295.757 192.163 294.788 191.78 293.931 190.992C293.232 190.271 292.871 189.416 292.871 188.448V185.566C292.871 181.648 292.849 177.393 292.804 172.777L292.759 163.096C292.759 162.758 292.826 162.285 292.962 161.632C293.097 160.979 293.457 160.326 294.066 159.673C294.72 158.975 295.689 158.615 296.952 158.615C297.493 158.615 297.989 158.705 298.439 158.863C299.747 159.358 300.604 160.326 300.987 161.745C302.43 160.686 304.008 159.966 305.743 159.606C307.051 159.29 308.201 159.155 309.17 159.155C311.537 159.155 313.498 160.101 315.054 161.97C316.474 163.748 317.173 165.955 317.173 168.544C317.173 169.895 316.97 171.291 316.542 172.71C316.091 173.948 315.234 174.713 313.927 175.006C313.724 175.029 313.498 175.051 313.295 175.051C312.709 175.051 312.056 174.916 311.334 174.646C310.613 174.376 309.982 173.925 309.441 173.295C308.945 172.597 308.697 171.854 308.697 171.111C308.697 170.661 308.787 170.21 308.99 169.738C309.08 169.445 309.125 169.152 309.125 168.859C309.125 167.891 308.764 167.036 308.065 166.248C307.682 165.887 307.367 165.73 307.074 165.73C306.983 165.73 306.871 165.752 306.758 165.797L306.713 165.73C305.946 165.91 305.18 166.293 304.458 166.856C302.813 168.139 301.798 170.728 301.438 174.601C301.37 179.914 301.145 184.508 300.807 188.448C300.559 190.834 299.431 192.073 297.47 192.163Z" fill="#0079A1"/>
<path d="M217.352 154.967C215.571 154.967 214.061 154.043 212.888 152.175C211.829 150.351 211.31 148.189 211.31 145.713C211.31 143.146 211.851 140.782 212.911 138.643C213.948 136.684 215.323 135.311 217.014 134.478C218.208 133.87 219.493 133.577 220.914 133.577C221.297 133.577 222.018 133.645 223.055 133.78C223.168 130.875 223.326 128.781 223.484 127.52C223.596 126.35 224.047 125.517 224.836 125.021C225.129 124.819 225.49 124.729 225.941 124.729C226.076 124.729 226.234 124.751 226.392 124.774C227.136 124.774 227.767 124.954 228.24 125.314C228.984 125.832 229.367 126.687 229.367 127.903C229.277 129.885 229.074 137.742 228.714 151.454C228.714 152.355 228.533 153.12 228.195 153.728C227.902 154.201 227.406 154.539 226.685 154.786L226.008 154.809C225.264 154.809 224.633 154.494 224.115 153.886C223.641 153.345 223.348 152.332 223.213 150.869C221.455 153.526 219.516 154.899 217.352 154.967ZM217.78 150.846C217.938 150.824 218.231 150.689 218.704 150.418C219.561 149.45 220.35 148.122 221.094 146.433C221.838 144.745 222.334 142.943 222.627 140.985C222.627 139.859 222.627 138.756 222.649 137.652C222.289 137.562 222.041 137.495 221.838 137.495C221.364 137.495 220.891 137.697 220.418 138.103C219.944 138.508 219.403 139.296 218.795 140.467C218.276 141.547 217.893 142.831 217.645 144.272C217.397 145.623 217.262 146.884 217.262 148.054C217.262 148.144 217.262 148.55 217.284 149.203C217.284 149.878 217.465 150.418 217.78 150.846Z" fill="#93C12F"/>
<path d="M239.872 154.899C238.542 154.899 237.145 154.494 235.702 153.661C234.259 152.85 233.2 151.68 232.546 150.148C231.847 148.55 231.486 146.794 231.486 144.857C231.486 143.124 231.757 141.413 232.275 139.769C233.087 137.135 234.282 135.131 235.905 133.735C237.393 132.474 239.061 131.821 240.932 131.821H241.496C243.141 131.979 244.494 132.497 245.531 133.33C246.748 134.32 247.357 135.626 247.357 137.27C247.357 139.769 245.982 141.953 243.254 143.754C242.578 144.204 241.766 144.632 240.842 145.015C239.918 145.398 238.993 145.645 238.069 145.758V146.388C238.069 147.919 238.339 149.135 238.881 150.103C239.219 150.666 239.692 150.959 240.346 150.959C240.571 150.959 240.842 150.937 241.157 150.869C242.104 150.441 243.074 149.563 244.065 148.28C244.449 147.807 244.945 147.582 245.531 147.582C245.937 147.582 246.32 147.694 246.658 147.942C247.154 148.347 247.402 148.843 247.402 149.473C247.402 149.878 247.267 150.261 246.996 150.621C246.432 151.319 245.824 151.995 245.102 152.648C244.404 153.301 243.615 153.841 242.758 154.269C241.879 154.697 240.932 154.899 239.872 154.899ZM238.678 141.818C240.165 141.368 241.45 140.625 242.51 139.566C243.231 138.823 243.592 138.08 243.592 137.337C243.592 136.887 243.457 136.549 243.209 136.324C243.074 136.257 242.916 136.234 242.758 136.234C242.6 136.234 242.375 136.257 242.082 136.324C241.789 136.392 241.383 136.729 240.842 137.337C239.918 138.486 239.196 139.972 238.678 141.818Z" fill="#93C12F"/>
<path d="M253.128 155.44C252.79 155.44 252.451 155.372 252.091 155.259C251.234 154.989 250.671 154.156 250.355 152.76C250.039 151.027 249.882 147.559 249.882 142.381C249.882 135.536 250.062 130.808 250.445 128.173C250.558 127.025 251.009 126.192 251.798 125.674C252.068 125.472 252.429 125.382 252.902 125.382C253.06 125.382 253.218 125.382 253.376 125.404H253.556C254.616 125.404 255.405 125.877 255.968 126.823C256.216 127.228 256.351 127.768 256.351 128.444V128.511C256.261 130.56 256.126 135.423 255.946 143.079L255.72 152.085C255.72 153.773 255.157 154.832 254.007 155.304L253.691 155.44H253.128Z" fill="#93C12F"/>
</g>
<defs>
<clipPath id="clip0">
<rect width="226.659" height="274.898" fill="white" transform="translate(0 218.936) rotate(-75)"/>
</clipPath>
<clipPath id="clip1">
<rect width="311.569" height="140" fill="white" transform="translate(10 67)"/>
</clipPath>
</defs>
</svg>
