<svg width="81" height="110" viewBox="0 0 81 110" fill="none" xmlns="http://www.w3.org/2000/svg">
<path d="M32.7292 52.9403H25.307V60.3625H32.7292V52.9403Z" fill="#F8AC31"/>
<path d="M25.307 60.3624H17.8849V67.7846H25.307V60.3624Z" fill="#F8AC31"/>
<path d="M32.7292 60.3624H25.307V67.7846H32.7292V60.3624Z" fill="#F8AC31"/>
<path d="M32.7292 67.7847H25.307V75.2068H32.7292V67.7847Z" fill="#F8AC31"/>
<path d="M10.4627 45.5182H3.04056V52.9403H10.4627V45.5182Z" fill="#00B2B7"/>
<path d="M17.8849 45.5182H10.4627V52.9403H17.8849V45.5182Z" fill="#00B2B7"/>
<path d="M25.307 45.5182H17.8849V52.9403H25.307V45.5182Z" fill="#00B2B7"/>
<path d="M17.8849 52.9403H10.4627V60.3625H17.8849V52.9403Z" fill="#00B2B7"/>
<path d="M17.8849 30.6738H10.4627V38.096H17.8849V30.6738Z" fill="#418836"/>
<path d="M25.307 30.6738H17.8849V38.096H25.307V30.6738Z" fill="#418836"/>
<path d="M25.307 38.0961H17.8849V45.5182H25.307V38.0961Z" fill="#418836"/>
<path d="M17.8849 38.0961H10.4627V45.5182H17.8849V38.0961Z" fill="#418836"/>
<path d="M62.4178 30.6738H54.9957V38.096H62.4178V30.6738Z" fill="#418836"/>
<path d="M69.84 30.6738H62.4178V38.096H69.84V30.6738Z" fill="#418836"/>
<path d="M69.84 38.0961H62.4178V45.5182H69.84V38.0961Z" fill="#418836"/>
<path d="M62.4178 38.0961H54.9957V45.5182H62.4178V38.0961Z" fill="#418836"/>
<path d="M40.1513 52.9403H32.7292V60.3625H40.1513V52.9403Z" fill="#DF000E"/>
<path d="M47.5735 52.9403H40.1513V60.3625H47.5735V52.9403Z" fill="#DF000E"/>
<path d="M47.5735 60.3624H40.1513V67.7846H47.5735V60.3624Z" fill="#DF000E"/>
<path d="M40.1513 60.3624H32.7292V67.7846H40.1513V60.3624Z" fill="#DF000E"/>
<path d="M40.1513 8.40735H32.7292V15.8295H40.1513V8.40735Z" fill="#DF000E"/>
<path d="M47.5735 8.40735H40.1513V15.8295H47.5735V8.40735Z" fill="#DF000E"/>
<path d="M47.5735 15.8296H40.1513V23.2517H47.5735V15.8296Z" fill="#DF000E"/>
<path d="M40.1513 15.8296H32.7292V23.2517H40.1513V15.8296Z" fill="#DF000E"/>
<path d="M10.4627 0.985229H3.04056V8.40738H10.4627V0.985229Z" fill="#72742E"/>
<path d="M17.8849 0.985229H10.4627V8.40738H17.8849V0.985229Z" fill="#72742E"/>
<path d="M25.307 0.985229H17.8849V8.40738H25.307V0.985229Z" fill="#72742E"/>
<path d="M32.7292 0.985229H25.307V8.40738H32.7292V0.985229Z" fill="#F8AC31"/>
<path d="M25.307 8.40735H17.8849V15.8295H25.307V8.40735Z" fill="#F8AC31"/>
<path d="M32.7292 8.40735H25.307V15.8295H32.7292V8.40735Z" fill="#F8AC31"/>
<path d="M32.7292 15.8296H25.307V23.2517H32.7292V15.8296Z" fill="#F8AC31"/>
<path d="M17.8849 8.40735H10.4627V15.8295H17.8849V8.40735Z" fill="#72742E"/>
<path d="M10.4627 8.40735H3.04056V15.8295H10.4627V8.40735Z" fill="#72742E"/>
<path d="M10.4627 15.8296H3.04056V23.2517H10.4627V15.8296Z" fill="#72742E"/>
<path d="M17.8849 15.8296H10.4627V23.2517H17.8849V15.8296Z" fill="#93C12F"/>
<path d="M10.4627 23.2517H3.04056V30.6739H10.4627V23.2517Z" fill="#93C12F"/>
<path d="M17.8849 23.2517H10.4627V30.6739H17.8849V23.2517Z" fill="#93C12F"/>
<path d="M25.307 23.2517H17.8849V30.6739H25.307V23.2517Z" fill="#93C12F"/>
<path d="M69.84 8.40735L77.2621 8.40735V0.985195L69.84 0.985195V8.40735Z" fill="#B16B3C"/>
<path d="M62.4178 8.40735L69.84 8.40735V0.985195L62.4178 0.985195V8.40735Z" fill="#B16B3C"/>
<path d="M54.9957 8.40735L62.4178 8.40735V0.985195L54.9957 0.985195V8.40735Z" fill="#B16B3C"/>
<path d="M47.62 8.51685L55.0422 8.51685V1.09469L47.62 1.09469V8.51685Z" fill="#ED6A60"/>
<path d="M54.9957 15.8296L62.4178 15.8296V8.40743H54.9957V15.8296Z" fill="#ED6A60"/>
<path d="M47.62 15.9062L55.0422 15.9062V8.48409H47.62V15.9062Z" fill="#ED6A60"/>
<path d="M47.5735 23.2517H54.9957V15.8296H47.5735V23.2517Z" fill="#ED6A60"/>
<path d="M62.4178 15.8296L69.84 15.8296V8.40743H62.4178V15.8296Z" fill="#B16B3C"/>
<path d="M69.84 15.8296L77.2621 15.8296V8.40743H69.84V15.8296Z" fill="#A96F3F"/>
<path d="M69.84 23.2517H77.2621V15.8296H69.84V23.2517Z" fill="#B16B3C"/>
<path d="M62.4178 23.2517H69.84V15.8296H62.4178V23.2517Z" fill="#93C12F"/>
<path d="M69.84 30.6738H77.2621V23.2517H69.84V30.6738Z" fill="#93C12F"/>
<path d="M62.4178 30.6738H69.84V23.2517H62.4178V30.6738Z" fill="#93C12F"/>
<path d="M54.9957 30.6738H62.4178V23.2517H54.9957V30.6738Z" fill="#93C12F"/>
<path d="M10.4627 52.9403H3.04056V60.3625H10.4627V52.9403Z" fill="#218438"/>
<path d="M10.4627 60.3624H3.04056V67.7846H10.4627V60.3624Z" fill="#218438"/>
<path d="M17.8849 60.3624H10.4627V67.7846H17.8849V60.3624Z" fill="#218438"/>
<path d="M10.4627 67.7847H3.04056V75.2068H10.4627V67.7847Z" fill="#218438"/>
<path d="M17.8849 67.7847H10.4627V75.2068H17.8849V67.7847Z" fill="#218438"/>
<path d="M25.307 67.7847H17.8849V75.2068H25.307V67.7847Z" fill="#218438"/>
<path d="M47.5735 60.3624H54.9957V52.9403H47.5735V60.3624Z" fill="#ED6A60"/>
<path d="M54.9957 67.7847H62.4178V60.3625H54.9957V67.7847Z" fill="#ED6A60"/>
<path d="M47.5735 67.7847H54.9957V60.3625H47.5735V67.7847Z" fill="#ED6A60"/>
<path d="M47.5735 75.2068H54.9957V67.7846H47.5735V75.2068Z" fill="#ED6A60"/>
<path d="M69.84 52.9403H77.2621V45.5181H69.84V52.9403Z" fill="#00B2B7"/>
<path d="M62.4178 52.9403H69.84V45.5181H62.4178V52.9403Z" fill="#00B2B7"/>
<path d="M54.9957 52.9403H62.4178V45.5181H54.9957V52.9403Z" fill="#00B2B7"/>
<path d="M62.4178 60.3624H69.84V52.9403H62.4178V60.3624Z" fill="#00B2B7"/>
<path d="M69.84 60.3624H77.2621V52.9403H69.84V60.3624Z" fill="#0079A1"/>
<path d="M69.84 67.7847H77.2621V60.3625H69.84V67.7847Z" fill="#0079A1"/>
<path d="M62.4178 67.7847H69.84V60.3625H62.4178V67.7847Z" fill="#0079A1"/>
<path d="M69.84 75.2068H77.2621V67.7846H69.84V75.2068Z" fill="#0079A1"/>
<path d="M62.4178 75.2068H69.84V67.7846H62.4178V75.2068Z" fill="#0079A1"/>
<path d="M54.9957 75.2068H62.4178V67.7846H54.9957V75.2068Z" fill="#0079A1"/>
<g opacity="0.1">
<path opacity="0.1" d="M10.4627 0H10.46V76.4876H10.4627V0Z" fill="#B16B3C"/>
<path opacity="0.1" d="M17.8849 0H17.8821V76.4876H17.8849V0Z" fill="#B16B3C"/>
<path opacity="0.1" d="M25.307 0H25.3043V75.7158H25.307V0Z" fill="#B16B3C"/>
<path opacity="0.1" d="M32.7292 0H32.7264V75.7158H32.7292V0Z" fill="#B16B3C"/>
<path opacity="0.1" d="M40.1513 0H40.1486V76.4876H40.1513V0Z" fill="#B16B3C"/>
<path opacity="0.1" d="M47.5735 0H47.5708V76.4876H47.5735V0Z" fill="#B16B3C"/>
<path opacity="0.1" d="M54.9956 0H54.9929V75.7158H54.9956V0Z" fill="#B16B3C"/>
<path opacity="0.1" d="M62.4178 0H62.4151V75.7158H62.4178V0Z" fill="#B16B3C"/>
<path opacity="0.1" d="M69.84 0H69.8372V75.7158H69.84V0Z" fill="#B16B3C"/>
<path opacity="0.1" d="M78.3787 8.40735H1.91574V8.41009H78.3787V8.40735Z" fill="#B16B3C"/>
<path opacity="0.1" d="M78.3787 15.8268H1.91574V15.8295H78.3787V15.8268Z" fill="#B16B3C"/>
<path opacity="0.1" d="M78.3787 23.2517H2.68752V23.2544H78.3787V23.2517Z" fill="#B16B3C"/>
<path opacity="0.1" d="M78.3787 30.6738H2.68752V30.6766H78.3787V30.6738Z" fill="#B16B3C"/>
<path opacity="0.1" d="M78.3787 38.0961H1.91574V38.0988H78.3787V38.0961Z" fill="#B16B3C"/>
<path opacity="0.1" d="M78.3787 45.5182H1.91574V45.5209H78.3787V45.5182Z" fill="#B16B3C"/>
<path opacity="0.1" d="M78.3787 52.9403H2.68752V52.943H78.3787V52.9403Z" fill="#B16B3C"/>
<path opacity="0.1" d="M78.3787 60.3624H2.68752V60.3652H78.3787V60.3624Z" fill="#B16B3C"/>
<path opacity="0.1" d="M78.3787 67.7819H2.68752V67.7846H78.3787V67.7819Z" fill="#B16B3C"/>
</g>
<path d="M40.1513 30.6738H32.7292V38.096H40.1513V30.6738Z" fill="#042C61"/>
<path d="M47.5735 30.6738H40.1513V38.096H47.5735V30.6738Z" fill="#042C61"/>
<path d="M47.5735 38.0961H40.1513V45.5182H47.5735V38.0961Z" fill="#042C61"/>
<path d="M40.1513 38.0961H32.7292V45.5182H40.1513V38.0961Z" fill="#042C61"/>
<path d="M14.1957 88.097C16.6178 88.097 18.424 89.4654 18.424 90.8147C18.424 91.6494 17.8083 92.0654 17.0721 92.0654C15.7037 92.0654 16.199 90.3576 14.1163 90.3576C12.9833 90.3576 11.6532 91.1321 11.6532 93.7512C11.6532 95.5575 12.5071 96.7289 14.0944 96.7289C16.1197 96.7289 15.6845 94.8651 17.2116 94.8651C17.3647 94.8563 17.518 94.8782 17.6624 94.9296C17.8069 94.9811 17.9396 95.0609 18.0526 95.1645C18.1656 95.2681 18.2567 95.3933 18.3205 95.5328C18.3843 95.6722 18.4195 95.823 18.424 95.9762C18.424 97.2461 16.9927 98.9867 14.0151 98.9867C10.4436 98.9867 8.75772 96.7836 8.75772 93.7458C8.75224 90.4178 10.6379 88.097 14.1957 88.097Z" fill="#002352"/>
<path d="M29.4615 95.9297C29.4615 97.1421 29.757 97.4185 29.757 97.8755C29.757 98.5296 29.144 98.9867 28.4489 98.9867C27.1981 98.9867 26.7822 98.193 26.7411 97.3008C25.6108 98.5515 24.2999 98.9867 22.7728 98.9867C21.1307 98.9867 19.4886 97.8564 19.4886 96.0282C19.4886 93.6281 21.3141 92.9521 23.5363 92.6948L25.3043 92.4978C25.9994 92.4184 26.555 92.2569 26.555 91.425C26.555 90.593 25.7011 90.2345 24.7296 90.2345C22.5839 90.2345 22.5401 91.8218 21.3743 91.8218C21.2199 91.8322 21.065 91.8114 20.9188 91.7608C20.7727 91.7101 20.6381 91.6306 20.5233 91.527C20.4084 91.4233 20.3155 91.2977 20.2501 91.1574C20.1848 91.0172 20.1482 90.8653 20.1427 90.7107C20.1427 89.5585 21.7711 88.0916 24.7487 88.0916C27.5266 88.0916 29.4533 88.9838 29.4533 91.0664L29.4615 95.9297ZM26.5632 93.847C26.2458 94.1453 25.6491 94.2438 25.3125 94.3041L24.2616 94.4628C23.0492 94.6407 22.3951 95.0101 22.3951 95.8914C22.3951 96.5455 23.0109 97.0819 24.0016 97.0819C25.5889 97.0819 26.5632 96.0501 26.5632 94.9773V93.847Z" fill="#002352"/>
<path d="M31.6619 89.5448C31.6619 88.7703 31.9793 88.097 33.1096 88.097C34.2399 88.097 34.5574 88.7703 34.5574 89.5448V99.7612C34.5574 101.844 33.7637 102.837 31.6016 102.837C30.4905 102.837 30.0143 102.421 30.0143 101.587C30.0143 100.853 30.3099 100.574 30.9257 100.574H31.2431C31.5168 100.574 31.6619 100.336 31.6619 100.06V89.5448ZM33.1096 84.1068C33.4079 84.1068 33.6994 84.1953 33.9474 84.361C34.1954 84.5267 34.3886 84.7622 34.5028 85.0377C34.6169 85.3133 34.6468 85.6165 34.5886 85.909C34.5304 86.2015 34.3868 86.4702 34.1759 86.6811C33.965 86.892 33.6963 87.0356 33.4038 87.0938C33.1113 87.152 32.8081 87.1221 32.5325 87.008C32.257 86.8938 32.0215 86.7005 31.8558 86.4526C31.6901 86.2046 31.6016 85.913 31.6016 85.6148C31.6013 85.4167 31.64 85.2204 31.7157 85.0373C31.7914 84.8542 31.9024 84.6878 32.0425 84.5477C32.1826 84.4076 32.349 84.2965 32.5321 84.2209C32.7152 84.1452 32.9115 84.1065 33.1096 84.1068Z" fill="#002352"/>
<path d="M45.9889 95.9297C45.9889 97.1421 46.2872 97.4185 46.2872 97.8755C46.2872 98.5296 45.6714 98.9867 44.9763 98.9867C43.7256 98.9867 43.3096 98.193 43.2713 97.3008C42.1382 98.5515 40.8301 98.9867 39.3002 98.9867C37.6581 98.9867 36.0161 97.8564 36.0161 96.0282C36.0161 93.6281 37.8442 92.9521 40.0665 92.6948L41.8317 92.4978C42.5269 92.4184 43.0824 92.2569 43.0824 91.425C43.0824 90.593 42.2286 90.2345 41.257 90.2345C39.1141 90.2345 39.0539 91.8218 37.9017 91.8218C37.7475 91.8322 37.5927 91.8114 37.4467 91.7607C37.3007 91.71 37.1663 91.6305 37.0517 91.5268C36.937 91.4231 36.8444 91.2975 36.7793 91.1572C36.7142 91.017 36.6781 90.8651 36.6729 90.7107C36.6729 89.5585 38.2985 88.0916 41.2762 88.0916C44.0567 88.0916 45.9807 88.9838 45.9807 91.0664L45.9889 95.9297ZM43.0906 93.847C42.7732 94.1453 42.1793 94.2438 41.8399 94.3041L40.789 94.4628C39.5794 94.6407 38.9225 95.0101 38.9225 95.8914C38.9225 96.5455 39.5383 97.0819 40.5318 97.0819C42.1191 97.0819 43.0906 96.0501 43.0906 94.9773V93.847Z" fill="#002352"/>
<path d="M49.273 83.4199H51.1423V98.4175H49.2813L49.273 83.4199Z" fill="#707074"/>
<path d="M58.6848 98.4174L58.5343 97.1284H58.4714C58.1085 97.6116 57.6357 98.0015 57.0922 98.2656C56.5487 98.5297 55.9501 98.6606 55.346 98.6473C53.2769 98.6473 52.2206 97.1914 52.2206 95.7135C52.2206 93.2504 54.41 91.882 58.3674 91.9094V91.6986C58.3674 90.8557 58.1347 89.3341 56.0438 89.3341C55.103 89.3368 54.1813 89.6002 53.3809 90.0949L52.9595 88.8688C53.9721 88.2586 55.1353 87.9438 56.3175 87.9602C59.4429 87.9602 60.2037 90.0949 60.2037 92.142V95.9735C60.1901 96.7979 60.2469 97.6219 60.3734 98.4366L58.6848 98.4174ZM58.4112 93.1984C56.3832 93.1573 54.0816 93.5159 54.0816 95.5028C54.0816 96.7042 54.8834 97.2762 55.8358 97.2762C56.3746 97.2886 56.9034 97.1296 57.3461 96.8222C57.7887 96.5148 58.1223 96.0749 58.2989 95.5657C58.3637 95.3752 58.3988 95.1758 58.4029 94.9746L58.4112 93.1984Z" fill="#707074"/>
<path d="M62.2235 98.4175C62.2645 97.7196 62.3083 96.6851 62.3083 95.7765V83.4199H64.1447V89.8404H64.1858C64.8426 88.6992 66.0249 87.9602 67.6724 87.9602C70.2067 87.9602 72.002 90.073 71.9801 93.1793C71.9801 96.8329 69.6785 98.6529 67.3988 98.6529C65.9182 98.6529 64.7359 98.0836 63.975 96.7371H63.9121L63.8273 98.4284L62.2235 98.4175ZM64.1392 94.3123C64.1445 94.5399 64.173 94.7664 64.2241 94.9883C64.3779 95.612 64.7367 96.1659 65.2428 96.5614C65.749 96.9569 66.3733 97.171 67.0156 97.1695C68.9587 97.1695 70.1191 95.5849 70.1191 93.2422C70.1191 91.1924 69.0627 89.4408 67.0785 89.4408C66.4206 89.4524 65.7853 89.6828 65.2728 90.0956C64.7604 90.5084 64.4001 91.0802 64.2487 91.7206C64.1858 91.9696 64.15 92.2247 64.142 92.4814L64.1392 94.3123Z" fill="#707074"/>
<path d="M0.665149 109.39H3.04314V109.931H0V104.913H0.665149V109.39Z" fill="#002352"/>
<path d="M6.00013 109.931C5.96337 109.858 5.9335 109.727 5.91052 109.538C5.61413 109.846 5.26031 110 4.84904 110C4.48143 110 4.1793 109.897 3.94265 109.69C3.70829 109.481 3.59112 109.217 3.59112 108.897C3.59112 108.509 3.73816 108.208 4.03225 107.994C4.32864 107.778 4.7445 107.67 5.27984 107.67H5.90018V107.377C5.90018 107.154 5.83355 106.978 5.70029 106.847C5.56703 106.713 5.37059 106.647 5.11096 106.647C4.8835 106.647 4.6928 106.704 4.53887 106.819C4.38493 106.934 4.30796 107.073 4.30796 107.236H3.66694C3.66694 107.05 3.73242 106.871 3.86338 106.698C3.99664 106.524 4.17585 106.386 4.40101 106.285C4.62847 106.184 4.87776 106.133 5.14887 106.133C5.57852 106.133 5.91512 106.241 6.15866 106.457C6.4022 106.671 6.52857 106.966 6.53776 107.343V109.059C6.53776 109.401 6.58141 109.674 6.66872 109.876V109.931H6.00013ZM4.94209 109.445C5.14198 109.445 5.33153 109.393 5.51074 109.29C5.68995 109.187 5.81977 109.052 5.90018 108.887V108.122H5.40046C4.61928 108.122 4.22869 108.35 4.22869 108.808C4.22869 109.007 4.29532 109.164 4.42858 109.276C4.56184 109.389 4.73301 109.445 4.94209 109.445Z" fill="#002352"/>
<path d="M10.6941 108.108C10.6941 108.678 10.5631 109.136 10.3012 109.483C10.0393 109.828 9.68774 110 9.24661 110C8.7756 110 8.41144 109.833 8.15411 109.5L8.12309 109.931H7.53721V104.637H8.17478V106.612C8.43211 106.293 8.78709 106.133 9.23971 106.133C9.69234 106.133 10.0473 106.304 10.3046 106.647C10.5643 106.989 10.6941 107.458 10.6941 108.053V108.108ZM10.0565 108.036C10.0565 107.601 9.97264 107.266 9.80492 107.029C9.63719 106.793 9.39595 106.674 9.08118 106.674C8.66072 106.674 8.35859 106.87 8.17478 107.26V108.873C8.37008 109.264 8.67451 109.459 9.08807 109.459C9.39365 109.459 9.63145 109.341 9.80147 109.104C9.97149 108.867 10.0565 108.511 10.0565 108.036Z" fill="#002352"/>
<path d="M11.3317 108.032C11.3317 107.667 11.4029 107.338 11.5453 107.046C11.6901 106.755 11.89 106.53 12.145 106.371C12.4023 106.212 12.6953 106.133 13.0238 106.133C13.5316 106.133 13.9417 106.309 14.2542 106.66C14.5689 107.012 14.7263 107.48 14.7263 108.063V108.108C14.7263 108.471 14.6563 108.797 14.5161 109.087C14.3782 109.374 14.1795 109.598 13.9199 109.759C13.6626 109.92 13.3662 110 13.0307 110C12.5253 110 12.1151 109.824 11.8004 109.473C11.4879 109.121 11.3317 108.656 11.3317 108.077V108.032ZM11.9727 108.108C11.9727 108.522 12.068 108.854 12.2587 109.104C12.4517 109.354 12.7091 109.48 13.0307 109.48C13.3547 109.48 13.612 109.353 13.8027 109.1C13.9934 108.845 14.0888 108.489 14.0888 108.032C14.0888 107.623 13.9911 107.292 13.7958 107.04C13.6028 106.785 13.3455 106.657 13.0238 106.657C12.7091 106.657 12.4552 106.782 12.2622 107.033C12.0692 107.283 11.9727 107.642 11.9727 108.108Z" fill="#002352"/>
<path d="M17.3283 106.774C17.2318 106.758 17.1273 106.75 17.0147 106.75C16.5966 106.75 16.3128 106.928 16.1635 107.284V109.931H15.5259V106.202H16.1462L16.1566 106.633C16.3657 106.3 16.662 106.133 17.0457 106.133C17.1698 106.133 17.264 106.149 17.3283 106.181V106.774Z" fill="#002352"/>
<path d="M20.082 109.931C20.0452 109.858 20.0154 109.727 19.9924 109.538C19.696 109.846 19.3422 110 18.9309 110C18.5633 110 18.2612 109.897 18.0245 109.69C17.7902 109.481 17.673 109.217 17.673 108.897C17.673 108.509 17.82 108.208 18.1141 107.994C18.4105 107.778 18.8264 107.67 19.3617 107.67H19.982V107.377C19.982 107.154 19.9154 106.978 19.7822 106.847C19.6489 106.713 19.4525 106.647 19.1928 106.647C18.9654 106.647 18.7747 106.704 18.6207 106.819C18.4668 106.934 18.3898 107.073 18.3898 107.236H17.7488C17.7488 107.05 17.8143 106.871 17.9452 106.698C18.0785 106.524 18.2577 106.386 18.4829 106.285C18.7103 106.184 18.9596 106.133 19.2307 106.133C19.6604 106.133 19.997 106.241 20.2405 106.457C20.4841 106.671 20.6104 106.966 20.6196 107.343V109.059C20.6196 109.401 20.6633 109.674 20.7506 109.876V109.931H20.082ZM19.024 109.445C19.2238 109.445 19.4134 109.393 19.5926 109.29C19.7718 109.187 19.9016 109.052 19.982 108.887V108.122H19.4823C18.7011 108.122 18.3106 108.35 18.3106 108.808C18.3106 109.007 18.3772 109.164 18.5104 109.276C18.6437 109.389 18.8149 109.445 19.024 109.445Z" fill="#002352"/>
<path d="M22.4841 105.299V106.202H23.1803V106.695H22.4841V109.007C22.4841 109.157 22.5151 109.269 22.5772 109.345C22.6392 109.419 22.7449 109.455 22.8942 109.455C22.9677 109.455 23.0688 109.442 23.1975 109.414V109.931C23.0298 109.977 22.8667 110 22.7081 110C22.4232 110 22.2084 109.914 22.0636 109.742C21.9189 109.569 21.8465 109.325 21.8465 109.007V106.695H21.1676V106.202H21.8465V105.299H22.4841Z" fill="#002352"/>
<path d="M23.6903 108.032C23.6903 107.667 23.7616 107.338 23.904 107.046C24.0488 106.755 24.2486 106.53 24.5037 106.371C24.761 106.212 25.0539 106.133 25.3825 106.133C25.8903 106.133 26.3004 106.309 26.6129 106.66C26.9276 107.012 27.085 107.48 27.085 108.063V108.108C27.085 108.471 27.0149 108.797 26.8748 109.087C26.7369 109.374 26.5382 109.598 26.2786 109.759C26.0212 109.92 25.7248 110 25.3894 110C24.8839 110 24.4738 109.824 24.159 109.473C23.8466 109.121 23.6903 108.656 23.6903 108.077V108.032ZM24.3314 108.108C24.3314 108.522 24.4267 108.854 24.6174 109.104C24.8104 109.354 25.0677 109.48 25.3894 109.48C25.7134 109.48 25.9707 109.353 26.1614 109.1C26.3521 108.845 26.4474 108.489 26.4474 108.032C26.4474 107.623 26.3498 107.292 26.1545 107.04C25.9615 106.785 25.7042 106.657 25.3825 106.657C25.0677 106.657 24.8138 106.782 24.6209 107.033C24.4279 107.283 24.3314 107.642 24.3314 108.108Z" fill="#002352"/>
<path d="M29.687 106.774C29.5905 106.758 29.486 106.75 29.3734 106.75C28.9552 106.75 28.6715 106.928 28.5221 107.284V109.931H27.8846V106.202H28.5049L28.5153 106.633C28.7243 106.3 29.0207 106.133 29.4044 106.133C29.5285 106.133 29.6227 106.149 29.687 106.181V106.774Z" fill="#002352"/>
<path d="M30.9691 109.931H30.3315V106.202H30.9691V109.931ZM30.2798 105.213C30.2798 105.11 30.3108 105.022 30.3728 104.951C30.4372 104.88 30.5314 104.844 30.6554 104.844C30.7795 104.844 30.8737 104.88 30.938 104.951C31.0024 105.022 31.0345 105.11 31.0345 105.213C31.0345 105.316 31.0024 105.403 30.938 105.471C30.8737 105.54 30.7795 105.575 30.6554 105.575C30.5314 105.575 30.4372 105.54 30.3728 105.471C30.3108 105.403 30.2798 105.316 30.2798 105.213Z" fill="#002352"/>
<path d="M31.8238 108.032C31.8238 107.667 31.895 107.338 32.0374 107.046C32.1822 106.755 32.3821 106.53 32.6371 106.371C32.8944 106.212 33.1874 106.133 33.5159 106.133C34.0237 106.133 34.4338 106.309 34.7463 106.66C35.0611 107.012 35.2184 107.48 35.2184 108.063V108.108C35.2184 108.471 35.1484 108.797 35.0082 109.087C34.8704 109.374 34.6716 109.598 34.412 109.759C34.1547 109.92 33.8583 110 33.5228 110C33.0174 110 32.6072 109.824 32.2925 109.473C31.98 109.121 31.8238 108.656 31.8238 108.077V108.032ZM32.4648 108.108C32.4648 108.522 32.5601 108.854 32.7508 109.104C32.9438 109.354 33.2012 109.48 33.5228 109.48C33.8468 109.48 34.1041 109.353 34.2948 109.1C34.4855 108.845 34.5809 108.489 34.5809 108.032C34.5809 107.623 34.4832 107.292 34.2879 107.04C34.0949 106.785 33.8376 106.657 33.5159 106.657C33.2012 106.657 32.9473 106.782 32.7543 107.033C32.5613 107.283 32.4648 107.642 32.4648 108.108Z" fill="#002352"/>
<path d="M37.6137 108.036C37.6137 107.463 37.7492 107.004 38.0203 106.657C38.2915 106.308 38.6464 106.133 39.0853 106.133C39.5218 106.133 39.8676 106.283 40.1226 106.581V104.637H40.7602V109.931H40.1743L40.1433 109.531C39.8883 109.844 39.5333 110 39.0784 110C38.6464 110 38.2938 109.823 38.0203 109.469C37.7492 109.115 37.6137 108.654 37.6137 108.084V108.036ZM38.2512 108.108C38.2512 108.531 38.3386 108.862 38.5132 109.1C38.6878 109.339 38.929 109.459 39.2369 109.459C39.6413 109.459 39.9365 109.277 40.1226 108.914V107.202C39.9319 106.85 39.639 106.674 39.2438 106.674C38.9313 106.674 38.6878 106.795 38.5132 107.036C38.3386 107.277 38.2512 107.635 38.2512 108.108Z" fill="#002352"/>
<path d="M43.3002 110C42.7947 110 42.3834 109.835 42.0664 109.504C41.7493 109.171 41.5908 108.726 41.5908 108.17V108.053C41.5908 107.683 41.6609 107.353 41.801 107.064C41.9435 106.772 42.141 106.544 42.3938 106.381C42.6488 106.216 42.9245 106.133 43.2209 106.133C43.7057 106.133 44.0825 106.293 44.3513 106.612C44.6201 106.932 44.7545 107.389 44.7545 107.984V108.249H42.2284C42.2375 108.617 42.3444 108.914 42.5489 109.142C42.7556 109.367 43.0176 109.48 43.3346 109.48C43.5598 109.48 43.7505 109.434 43.9067 109.342C44.063 109.25 44.1997 109.128 44.3169 108.976L44.7063 109.28C44.3938 109.76 43.9251 110 43.3002 110ZM43.2209 106.657C42.9636 106.657 42.7476 106.751 42.573 106.94C42.3984 107.126 42.2904 107.388 42.249 107.725H44.117V107.677C44.0986 107.353 44.0113 107.103 43.855 106.926C43.6988 106.747 43.4874 106.657 43.2209 106.657Z" fill="#002352"/>
<path d="M48.0562 109.931H47.3945V104.913H48.0562V109.931Z" fill="#002352"/>
<path d="M49.7724 106.202L49.7931 106.671C50.078 106.312 50.4502 106.133 50.9098 106.133C51.6978 106.133 52.0953 106.578 52.1022 107.467V109.931H51.4646V107.463C51.4623 107.195 51.4003 106.996 51.2785 106.867C51.159 106.739 50.9718 106.674 50.7168 106.674C50.51 106.674 50.3285 106.729 50.1722 106.84C50.016 106.95 49.8942 107.095 49.8069 107.274V109.931H49.1693V106.202H49.7724Z" fill="#002352"/>
<path d="M53.6668 106.202L53.6875 106.671C53.9724 106.312 54.3446 106.133 54.8042 106.133C55.5922 106.133 55.9897 106.578 55.9966 107.467V109.931H55.359V107.463C55.3567 107.195 55.2947 106.996 55.1729 106.867C55.0534 106.739 54.8662 106.674 54.6112 106.674C54.4044 106.674 54.2229 106.729 54.0666 106.84C53.9104 106.95 53.7886 107.095 53.7013 107.274V109.931H53.0637V106.202H53.6668Z" fill="#002352"/>
<path d="M56.7893 108.032C56.7893 107.667 56.8605 107.338 57.0029 107.046C57.1477 106.755 57.3476 106.53 57.6026 106.371C57.8599 106.212 58.1529 106.133 58.4814 106.133C58.9892 106.133 59.3993 106.309 59.7118 106.66C60.0265 107.012 60.1839 107.48 60.1839 108.063V108.108C60.1839 108.471 60.1139 108.797 59.9737 109.087C59.8358 109.374 59.6371 109.598 59.3775 109.759C59.1202 109.92 58.8238 110 58.4883 110C57.9828 110 57.5727 109.824 57.258 109.473C56.9455 109.121 56.7893 108.656 56.7893 108.077V108.032ZM57.4303 108.108C57.4303 108.522 57.5256 108.854 57.7163 109.104C57.9093 109.354 58.1667 109.48 58.4883 109.48C58.8123 109.48 59.0696 109.353 59.2603 109.1C59.451 108.845 59.5464 108.489 59.5464 108.032C59.5464 107.623 59.4487 107.292 59.2534 107.04C59.0604 106.785 58.8031 106.657 58.4814 106.657C58.1667 106.657 57.9128 106.782 57.7198 107.033C57.5268 107.283 57.4303 107.642 57.4303 108.108Z" fill="#002352"/>
<path d="M62.1587 109.066L63.0823 106.202H63.7337L62.3965 109.931H61.9106L60.5596 106.202H61.2109L62.1587 109.066Z" fill="#002352"/>
<path d="M66.5942 109.931C66.5574 109.858 66.5275 109.727 66.5046 109.538C66.2082 109.846 65.8544 110 65.4431 110C65.0755 110 64.7733 109.897 64.5367 109.69C64.3023 109.481 64.1852 109.217 64.1852 108.897C64.1852 108.509 64.3322 108.208 64.6263 107.994C64.9227 107.778 65.3385 107.67 65.8739 107.67H66.4942V107.377C66.4942 107.154 66.4276 106.978 66.2943 106.847C66.1611 106.713 65.9646 106.647 65.705 106.647C65.4776 106.647 65.2869 106.704 65.1329 106.819C64.979 106.934 64.902 107.073 64.902 107.236H64.261C64.261 107.05 64.3265 106.871 64.4574 106.698C64.5907 106.524 64.7699 106.386 64.9951 106.285C65.2225 106.184 65.4718 106.133 65.7429 106.133C66.1726 106.133 66.5092 106.241 66.7527 106.457C66.9962 106.671 67.1226 106.966 67.1318 107.343V109.059C67.1318 109.401 67.1755 109.674 67.2628 109.876V109.931H66.5942ZM65.5361 109.445C65.736 109.445 65.9256 109.393 66.1048 109.29C66.284 109.187 66.4138 109.052 66.4942 108.887V108.122H65.9945C65.2133 108.122 64.8227 108.35 64.8227 108.808C64.8227 109.007 64.8894 109.164 65.0226 109.276C65.1559 109.389 65.3271 109.445 65.5361 109.445Z" fill="#002352"/>
<path d="M69.627 109.48C69.8544 109.48 70.0532 109.411 70.2232 109.273C70.3932 109.135 70.4874 108.963 70.5058 108.756H71.1089C71.0974 108.97 71.0239 109.173 70.8884 109.366C70.7528 109.559 70.5713 109.713 70.3438 109.828C70.1187 109.943 69.8797 110 69.627 110C69.1192 110 68.7148 109.831 68.4139 109.493C68.1152 109.153 67.9658 108.689 67.9658 108.101V107.994C67.9658 107.631 68.0325 107.308 68.1657 107.026C68.299 106.743 68.4897 106.524 68.7378 106.368C68.9883 106.211 69.2835 106.133 69.6235 106.133C70.0417 106.133 70.3886 106.258 70.6643 106.509C70.9423 106.759 71.0905 107.084 71.1089 107.484H70.5058C70.4874 107.243 70.3955 107.045 70.2301 106.891C70.067 106.735 69.8648 106.657 69.6235 106.657C69.2996 106.657 69.048 106.774 68.8688 107.009C68.6919 107.241 68.6034 107.577 68.6034 108.018V108.139C68.6034 108.569 68.6919 108.899 68.8688 109.132C69.0457 109.364 69.2984 109.48 69.627 109.48Z" fill="#002352"/>
<path d="M72.5185 109.931H71.8809V106.202H72.5185V109.931ZM71.8292 105.213C71.8292 105.11 71.8602 105.022 71.9223 104.951C71.9866 104.88 72.0808 104.844 72.2049 104.844C72.3289 104.844 72.4231 104.88 72.4875 104.951C72.5518 105.022 72.584 105.11 72.584 105.213C72.584 105.316 72.5518 105.403 72.4875 105.471C72.4231 105.54 72.3289 105.575 72.2049 105.575C72.0808 105.575 71.9866 105.54 71.9223 105.471C71.8602 105.403 71.8292 105.316 71.8292 105.213Z" fill="#002352"/>
<path d="M73.3732 108.032C73.3732 107.667 73.4444 107.338 73.5869 107.046C73.7316 106.755 73.9315 106.53 74.1865 106.371C74.4439 106.212 74.7368 106.133 75.0653 106.133C75.5731 106.133 75.9832 106.309 76.2957 106.66C76.6105 107.012 76.7679 107.48 76.7679 108.063V108.108C76.7679 108.471 76.6978 108.797 76.5576 109.087C76.4198 109.374 76.221 109.598 75.9614 109.759C75.7041 109.92 75.4077 110 75.0722 110C74.5668 110 74.1567 109.824 73.8419 109.473C73.5294 109.121 73.3732 108.656 73.3732 108.077V108.032ZM74.0142 108.108C74.0142 108.522 74.1096 108.854 74.3003 109.104C74.4932 109.354 74.7506 109.48 75.0722 109.48C75.3962 109.48 75.6535 109.353 75.8442 109.1C76.0349 108.845 76.1303 108.489 76.1303 108.032C76.1303 107.623 76.0326 107.292 75.8373 107.04C75.6443 106.785 75.387 106.657 75.0653 106.657C74.7506 106.657 74.4967 106.782 74.3037 107.033C74.1107 107.283 74.0142 107.642 74.0142 108.108ZM75.3548 104.637H76.1268L75.2032 105.651H74.6897L75.3548 104.637Z" fill="#002352"/>
<path d="M78.1705 106.202L78.1912 106.671C78.4761 106.312 78.8483 106.133 79.3078 106.133C80.0959 106.133 80.4934 106.578 80.5003 107.467V109.931H79.8627V107.463C79.8604 107.195 79.7984 106.996 79.6766 106.867C79.5571 106.739 79.3699 106.674 79.1148 106.674C78.908 106.674 78.7265 106.729 78.5703 106.84C78.4141 106.95 78.2923 107.095 78.205 107.274V109.931H77.5674V106.202H78.1705Z" fill="#002352"/>
</svg>
