<svg width="100" height="43" viewBox="0 0 100 43" fill="none" xmlns="http://www.w3.org/2000/svg">
<path d="M8.65576 0.254041C8.80923 0.596303 8.52275 0.759045 8.342 0.945276C7.26429 2.05427 6.6163 3.3646 6.36734 4.87961C6.29913 5.29234 6.43555 5.73023 6.20705 6.12115C6.03993 6.27215 5.82849 6.25369 5.62556 6.26208C3.83507 6.33255 2.29695 6.98519 0.983919 8.17975C0.775881 8.36766 0.601947 8.74348 0.204628 8.45826C0.0238733 8.13949 0.0852616 8.04889 0 7.33249C0.0102314 6.24195 0.022168 5.16483 0.0323994 4.07429C0.148355 3.26729 0.266016 2.46364 0.521801 1.68013C0.591716 1.46538 0.758828 1.25902 0.948109 1.08117C1.32156 0.730524 1.7922 0.497316 2.29524 0.384906C3.06942 0.213775 3.98513 0.0694882 5.0185 0.0191556C6.45942 -0.0513101 7.69912 0.0829103 8.65576 0.254041Z" fill="#72742E"/>
<path d="M8.75455 26.2176C6.25468 26.7394 3.80426 26.5783 1.39135 25.7495C1.05542 25.6337 0.779174 25.1304 0.779174 25.1304C0.485874 24.2395 0.189163 23.0634 0.0732072 21.6625C-0.0478643 20.2028 0.0629758 18.9512 0.216447 18.0016C0.564314 17.8506 0.731427 18.1308 0.919003 18.3103C2.01035 19.3539 3.31656 19.9646 4.80011 20.2498C5.25711 20.337 5.73799 20.176 6.17453 20.4042C6.33312 20.5652 6.31436 20.7733 6.32289 20.9712C6.3928 22.7648 7.06807 24.3049 8.32994 25.6002C8.50729 25.7797 8.74773 25.924 8.75455 26.2176Z" fill="#4D8139"/>
<path d="M24.8724 0.599521C25.7233 0.750519 26.1342 1.20855 26.361 2.02897C26.9681 4.22347 27.096 6.41797 26.6168 8.64268C26.4275 8.66281 26.3014 8.54537 26.1871 8.42792C24.8297 7.01693 23.145 6.34247 21.1925 6.26026C21.0271 6.25355 20.8565 6.24852 20.7201 6.13275C20.4916 5.80391 20.6008 5.42306 20.5632 5.06906C20.391 3.44499 19.7004 2.07594 18.5477 0.913261C18.3703 0.735419 18.0719 0.54751 18.3703 0.232093C22.9233 -0.148758 24.1204 0.4653 24.8724 0.599521Z" fill="#B16B3C"/>
<path d="M77.7209 0.0629883C78.7679 0.438805 79.5762 1.0428 79.8627 2.16857C80.2429 3.66345 79.4006 5.13987 77.9017 5.58112C76.4403 6.01231 74.8732 5.23886 74.3701 3.83794C73.85 2.39003 74.5594 0.839788 75.9986 0.249219C76.1248 0.197209 76.3056 0.230764 76.3755 0.0629883C76.8257 0.0629883 77.2741 0.0629883 77.7209 0.0629883Z" fill="#002352"/>
<path d="M99.9998 25.1704C99.8396 24.9506 99.814 24.7292 99.9998 24.5094C99.9998 24.7292 99.9998 24.9506 99.9998 25.1704Z" fill="#53607B"/>
<path d="M33.3337 16.696C33.2928 11.5235 37.4672 7.16805 42.7551 6.87277C45.729 6.70667 48.2801 7.66634 50.4031 9.7132C51.4177 10.6913 51.4586 12.0755 50.5344 12.9949C49.605 13.9177 48.2153 13.8791 47.1938 12.9177C45.6335 11.448 43.7919 10.9749 41.7337 11.6007C39.6908 12.2214 38.4528 13.6442 38.0128 15.6843C37.5269 17.9342 38.7052 20.2931 40.7804 21.3887C42.8745 22.4943 45.4187 22.1403 47.1341 20.5012C48.2289 19.4559 49.6016 19.4073 50.5548 20.377C51.4279 21.2662 51.4075 22.6202 50.5071 23.5446C46.9909 27.1518 41.1061 27.5226 37.1347 24.3868C34.7183 22.4843 33.3593 19.7294 33.3337 16.696Z" fill="#002352"/>
<path d="M79.7554 17.8014C79.7554 20.3516 79.7776 22.9018 79.7486 25.452C79.7264 27.4066 79.1262 29.1582 77.496 30.388C76.1727 31.3862 74.6551 31.7302 73.018 31.2235C72.3871 31.0289 71.8994 30.6463 71.734 29.9668C71.5703 29.289 71.7886 28.7001 72.4229 28.4736C73.9184 27.9384 74.3396 26.7942 74.3413 25.3916C74.3464 20.4204 74.3413 15.4475 74.3464 10.4764C74.3464 9.96464 74.3277 9.45125 74.4692 8.94625C74.6977 8.13254 75.2059 7.60908 76.0431 7.40271C76.7065 7.23829 77.3749 7.22823 78.0348 7.38593C79.162 7.65438 79.7452 8.46138 79.7503 9.77002C79.7605 12.2279 79.7537 14.6875 79.7537 17.1454C79.7554 17.3619 79.7554 17.5817 79.7554 17.8014Z" fill="#002352"/>
<path d="M26.6443 18.0202C27.1354 20.4495 26.9717 22.8336 26.1327 25.1707C26.0406 25.4258 25.9366 25.617 25.6502 25.716C23.1997 26.5566 20.7101 26.7663 18.1676 26.2093C18.1642 25.9794 18.333 25.8469 18.4762 25.7076C19.8438 24.3856 20.5873 22.7984 20.5975 20.8975C20.5975 20.7683 20.6163 20.6408 20.6811 20.525C20.8448 20.3019 21.0904 20.2969 21.3308 20.2935C23.1639 20.2566 24.702 19.5553 26.0031 18.3054C26.172 18.1443 26.3169 17.8624 26.6443 18.0202Z" fill="#0079A1"/>
<path d="M20.7817 20.535C20.7817 22.815 19.912 24.7075 18.1676 26.2108C16.4572 25.8937 14.9191 25.1672 13.4543 24.2747C13.4236 24.2227 13.4236 24.169 13.4492 24.1153C13.9232 23.6287 14.4757 23.2244 15.0027 22.8016C16.007 21.9946 16.8187 20.5232 16.0548 19.0099C15.9815 18.8656 15.9081 18.7079 16.0275 18.5468C16.2372 18.4982 16.3907 18.6173 16.5305 18.7297C17.6594 19.639 18.9554 20.1373 20.398 20.2917C20.5089 20.3034 20.6197 20.3236 20.7169 20.384C20.7663 20.4226 20.7868 20.4729 20.7817 20.535Z" fill="#ED6A60"/>
<path d="M13.4509 24.1975C13.4526 24.2226 13.4543 24.2495 13.4543 24.2746C12.0049 25.1957 10.4582 25.8886 8.75641 26.2175C7.0256 24.6773 6.11671 22.7814 6.16616 20.4661C6.18151 20.4426 6.19686 20.4175 6.2122 20.394C6.3742 20.2833 6.56689 20.2833 6.74765 20.2598C8.04874 20.0886 9.22876 19.6356 10.2724 18.8421C10.4173 18.733 10.5691 18.6122 10.7771 18.6542C10.9323 18.8739 10.7959 19.0786 10.7345 19.2833C10.373 20.498 10.6083 21.56 11.5274 22.4694C11.9895 22.9274 12.4943 23.3301 13.0076 23.7277C13.1781 23.8585 13.4015 23.9508 13.4509 24.1975Z" fill="#F8AC31"/>
<path d="M20.7816 20.5347C20.7612 20.4994 20.7424 20.4642 20.722 20.4273C20.5429 20.1941 20.5463 19.9089 20.5071 19.6421C20.3383 18.4962 19.9069 17.461 19.1941 16.5399C19.0832 16.3956 18.9434 16.2614 19.0133 16.0517C19.1924 15.8571 19.3885 15.9678 19.5812 16.0198C20.8209 16.3604 21.8781 16.0936 22.804 15.1893C23.4162 14.5921 23.9261 13.9159 24.4871 13.28C24.54 13.2448 24.5911 13.2465 24.6423 13.2834C25.5853 14.7498 26.3049 16.3067 26.6442 18.0197C26.3475 18.0465 26.2265 18.3032 26.044 18.4727C24.719 19.7159 23.1639 20.4139 21.3171 20.4373C21.1346 20.4407 20.9453 20.4155 20.7816 20.5347Z" fill="#00B2B7"/>
<path d="M24.6423 13.2838C24.615 13.2855 24.5894 13.2872 24.5622 13.2889C24.3541 13.2486 24.2757 13.0674 24.1665 12.9231C23.8084 12.4533 23.4162 12.0138 23.0138 11.5792C21.9821 10.4602 20.7595 10.1565 19.3186 10.6548C19.1941 10.6984 18.7268 11.4064 18.6007 11.3292C18.5222 11.1699 18.6092 11.0373 18.6979 10.9266C19.646 9.74377 20.4696 7.712 20.6401 6.23055C20.664 6.17686 20.7015 6.13659 20.7544 6.10807C23.0922 6.09465 25.0567 6.91675 26.6153 8.64484C26.2861 10.3243 25.5614 11.8443 24.6423 13.2838Z" fill="#93C12F"/>
<path d="M62.0004 39.1459C61.3729 39.8354 60.6158 40.1257 59.6898 39.9495C58.8782 39.7951 58.3308 39.2952 58.2404 38.4932C58.1057 37.2886 58.1824 36.0756 58.1995 34.8659C58.2063 34.3978 58.5286 34.1998 58.989 34.1998C59.4903 34.1998 59.7683 34.4532 59.7802 34.9313C59.8024 35.7752 59.787 36.6192 59.7905 37.4631C59.7922 38.3019 60.0838 38.6962 60.7062 38.713C61.3831 38.7298 61.9084 38.1694 61.9152 37.4094C61.922 36.6577 61.9135 35.9044 61.9186 35.1528C61.9237 34.4515 62.1317 34.2032 62.7013 34.2015C63.2794 34.1998 63.501 34.4548 63.5027 35.1394C63.5045 36.4229 63.4993 37.708 63.5062 38.9915C63.5079 39.4546 63.4959 39.8958 62.894 39.9931C62.4199 40.0686 62.1863 39.8505 62.0004 39.1459Z" fill="#1A2C50"/>
<path d="M42.1517 34.9921C42.4774 34.5223 42.8764 34.2992 43.347 34.2136C43.874 34.118 44.2474 34.3965 44.2917 34.8898C44.3378 35.3998 44.0547 35.7085 43.5107 35.7404C42.624 35.7924 42.3938 35.9736 42.3273 36.8443C42.2676 37.6463 42.3137 38.4567 42.2676 39.2603C42.2335 39.8777 41.7629 40.1445 41.1643 39.9499C40.7432 39.814 40.6801 39.4885 40.6801 39.1194C40.6801 37.7805 40.6852 36.4434 40.6784 35.1045C40.6766 34.6616 40.767 34.2791 41.2888 34.2103C41.8192 34.1415 42.0835 34.4284 42.1517 34.9921Z" fill="#1A2C50"/>
<path d="M66.7491 37.17C66.7491 37.8478 66.7542 38.5256 66.7474 39.2017C66.7423 39.7386 66.4917 39.9953 65.9837 40.0121C65.4586 40.0289 65.1722 39.7621 65.1671 39.1984C65.1569 37.7891 65.1569 36.3781 65.1671 34.9688C65.1722 34.4319 65.4314 34.202 65.9615 34.202C66.5002 34.2004 66.7372 34.4252 66.7457 34.9738C66.7559 35.7036 66.7491 36.4368 66.7491 37.17Z" fill="#1A2C50"/>
<path d="M65.96 33.7591C65.5066 33.7557 65.1008 33.3614 65.0923 32.9168C65.0838 32.4521 65.5134 32.0511 66.0009 32.0679C66.4646 32.0847 66.8567 32.4873 66.8397 32.9303C66.8226 33.3816 66.4186 33.7624 65.96 33.7591Z" fill="#1A2C50"/>
<path d="M99.9999 24.0696C99.7646 23.4472 99.8123 22.7878 99.8055 22.1486C99.7748 18.976 99.7799 15.8017 99.7765 12.629C99.7731 9.94461 98.5743 8.33564 95.9585 7.57059C94.035 7.00854 92.0621 6.9817 90.0857 7.18806C88.5271 7.3508 87.0657 7.81554 85.797 8.76011C84.9768 9.37249 84.3391 10.1241 84.0935 11.1341C83.8326 12.2079 84.1941 13.0636 85.0808 13.5216C86.0699 14.0333 87.0623 13.8605 87.8126 13.0451C88.0752 12.7599 88.3225 12.4596 88.5936 12.1827C89.8487 10.9043 92.2155 10.5671 93.7656 11.4361C94.5722 11.8891 94.903 12.6173 94.7359 13.582C94.6131 14.2967 94.1152 14.7463 93.225 14.9124C92.8601 14.9795 92.4867 15.0114 92.1166 15.0416C90.0908 15.201 88.0684 15.3772 86.162 16.1489C83.9196 17.0566 82.8009 18.6706 82.818 21.0446C82.8351 23.3381 83.9059 25.0008 86.0545 25.9319C87.7325 26.6601 89.4838 26.7205 91.2538 26.3195C92.7595 25.9789 94.0521 25.2692 95.0974 23.9908C95.1792 24.5377 95.302 24.9706 95.5748 25.3514C96.6236 26.8211 99.0655 26.9705 99.9982 25.6132C99.9982 25.4655 99.9982 25.3195 99.9982 25.1719C99.9061 24.9521 99.9061 24.7307 99.9982 24.5109C99.9999 24.3632 99.9999 24.2156 99.9999 24.0696ZM94.6216 20.1303C93.9634 22.4959 90.6706 23.5042 88.7556 21.9322C87.8058 21.1537 87.8672 19.7075 88.8954 18.9239C89.6406 18.3569 90.5308 18.1656 91.4345 18.0079C92.0024 17.9089 92.5651 17.7948 93.1295 17.6807C93.6957 17.5666 94.2277 17.3653 94.7904 17.0113C94.7666 18.1069 94.8996 19.1286 94.6216 20.1303Z" fill="#002352"/>
<path d="M8.67471 0.33313C10.4038 0.66197 11.9778 1.35992 13.4545 2.28771C13.4869 2.33972 13.4886 2.39173 13.4562 2.44375C12.8508 3.00915 12.1568 3.47221 11.5583 4.04936C10.5948 4.98051 10.3782 6.07608 10.7244 7.32098C10.7756 7.50721 10.9154 7.68841 10.7841 7.89645C10.6016 7.96356 10.4516 7.87799 10.3203 7.77565C9.22209 6.92503 7.9858 6.41667 6.59092 6.28916C6.46303 6.27741 6.33343 6.24721 6.22088 6.17507C6.20213 6.15326 6.18337 6.13145 6.16461 6.10964C6.11687 3.91681 6.91832 2.07296 8.52636 0.561304C8.59116 0.500905 8.62697 0.408629 8.67471 0.33313Z" fill="#F8AC31"/>
<path d="M2.28148 13.2851C1.33167 11.7852 0.595006 10.2014 0.271011 8.45147C0.450061 8.55885 0.538733 8.42127 0.639342 8.32061C2.15529 6.79385 3.99695 6.06067 6.1643 6.10933C6.18305 6.12275 6.20181 6.13617 6.22057 6.14791C6.35528 6.33582 6.38086 6.56232 6.40132 6.77707C6.51387 8.00519 7.52507 9.91112 8.26855 10.8842C8.39986 11.057 8.56526 11.2231 8.50729 11.4731C8.4135 11.5587 7.78938 10.7181 7.68366 10.6779C5.8062 9.96984 4.4727 10.7601 3.35407 12.1811C3.06077 12.5536 2.79817 12.9546 2.44348 13.2784C2.39062 13.3102 2.33605 13.3119 2.28148 13.2851Z" fill="#93C12F"/>
<path d="M2.28146 13.285C2.30874 13.285 2.33602 13.2867 2.36331 13.2884C2.57476 13.3253 2.6549 13.5048 2.75892 13.6508C3.22445 14.2967 3.75648 14.8873 4.35843 15.4074C5.24174 16.1708 6.26318 16.3486 7.38181 15.998C7.58473 15.9342 7.77401 15.7547 8.00592 15.9258C8.08778 16.1087 7.98376 16.2446 7.87803 16.3721C7.02201 17.4039 6.50532 18.5733 6.37913 19.9055C6.36208 20.0833 6.3365 20.2695 6.21372 20.4205C6.19838 20.4356 6.18132 20.4507 6.16598 20.4658C4.36525 20.5078 2.76574 19.9642 1.34017 18.8871C0.973544 18.6102 0.736516 18.1841 0.28804 18.0046C0.627382 16.2983 1.35722 14.7514 2.28146 13.285Z" fill="#00B2B7"/>
<path d="M13.4491 2.36467C13.4508 2.3395 13.4525 2.31266 13.4542 2.28749C14.9855 1.3664 16.5884 0.619802 18.3738 0.307739C18.2817 0.448671 18.3584 0.539269 18.4607 0.634901C20.0739 2.11468 20.7901 3.95853 20.756 6.10774L20.7202 6.14632C20.5156 6.29564 20.2666 6.32081 20.0313 6.34262C18.7847 6.45671 17.7053 6.95332 16.7214 7.68818C16.5185 7.83918 16.3326 8.04051 16.0393 8.01534C15.8893 7.83582 16.0018 7.66972 16.0717 7.50531C16.6072 6.25538 16.3923 5.16148 15.4016 4.20684C14.8849 3.70855 14.3767 3.20187 13.7952 2.77236C13.6503 2.66331 13.4815 2.56935 13.4491 2.36467Z" fill="#ED6A60"/>
<path d="M73.6472 35.6513C73.2481 34.643 72.2386 34.0826 71.1456 34.2084C70.6272 34.2671 70.2299 34.5456 69.8326 34.9248C69.7319 34.3678 69.4318 34.1296 68.922 34.2067C68.3712 34.2906 68.3678 34.7084 68.3695 35.1278C68.3729 37.1243 68.378 39.1209 68.3644 41.1174C68.3609 41.4932 68.465 41.7885 68.7651 42.0167C69.026 42.0167 69.2869 42.0167 69.5495 42.0167C69.8718 41.7717 69.9656 41.4479 69.9502 41.057C69.9281 40.5101 69.9451 39.9614 69.9451 39.3272C71.3059 40.4731 73.0452 40.0604 73.6523 38.5454C74.0325 37.5891 74.0257 36.6093 73.6472 35.6513ZM72.254 37.6612C72.092 38.3994 71.6981 38.7702 71.0876 38.7669C70.4874 38.7635 70.0542 38.3709 69.9178 37.6528C69.8326 37.2015 69.8326 36.7469 69.9809 36.2972C70.1463 35.7972 70.4584 35.465 71.0058 35.4348C71.577 35.403 71.9488 35.6983 72.1551 36.2117C72.2659 36.4851 72.3239 36.7703 72.3324 37.1696C72.3188 37.2653 72.2966 37.4649 72.254 37.6612Z" fill="#1A2C50"/>
<path d="M56.912 34.8847C56.912 34.5793 56.7926 34.3427 56.4908 34.2421C56.2145 34.1498 55.9366 34.1766 55.6944 34.3545C55.5051 34.4954 55.5324 34.7504 55.4045 34.9283C54.4769 33.7035 52.3454 34.0978 51.7281 35.4551C51.254 36.497 51.2318 37.5489 51.653 38.5958C52.0094 39.4767 52.7086 39.9464 53.672 40.0018C54.2944 40.037 54.8418 39.8206 55.3312 39.3257C55.3312 39.8944 55.3449 40.3525 55.3278 40.8105C55.309 41.2534 55.3244 41.6779 55.6671 42.0168C55.9656 42.0168 56.264 42.0168 56.5624 42.0168C56.6954 41.7903 56.9188 41.6208 56.9171 41.3105C56.9051 39.1696 56.9103 37.0271 56.912 34.8847ZM55.4233 37.1714C55.3807 38.1697 54.9151 38.7687 54.1802 38.767C53.4282 38.7653 52.9661 38.1378 52.9609 37.111C52.9558 36.0759 53.4521 35.4148 54.2228 35.4299C54.9714 35.445 55.4659 36.1614 55.4233 37.1714Z" fill="#1A2C50"/>
<path d="M70.6017 24.9573C70.5437 24.1889 70.4568 23.4222 70.4517 22.6538C70.4295 19.3503 70.4329 16.0485 70.4261 12.745C70.421 9.90452 69.1659 8.28213 66.371 7.51372C64.584 7.02214 62.7559 6.99697 60.9313 7.15804C59.3779 7.29561 57.8943 7.71841 56.6018 8.63446C55.7014 9.27033 54.9886 10.0505 54.7141 11.141C54.518 11.9212 54.6254 12.6527 55.2563 13.2131C55.8787 13.7667 56.6307 13.9378 57.4424 13.713C58.1109 13.5285 58.4946 12.9832 58.9175 12.4967C60.181 11.0454 62.3382 10.5454 64.0946 11.2954C65.0614 11.7081 65.5116 12.448 65.3939 13.4295C65.2899 14.2885 64.7477 14.7935 63.6734 14.9344C62.6025 15.0737 61.5214 15.1307 60.4505 15.2666C58.8561 15.4663 57.3009 15.8069 55.8736 16.5887C52.7087 18.3201 52.8196 23.0128 55.096 24.9473C58.0035 27.4203 63.1345 27.0042 65.6907 24.0178C66.1067 26.1955 67.812 26.8566 69.6144 26.3683C70.4295 26.1452 70.6648 25.7895 70.6017 24.9573ZM65.307 19.8771C64.6948 22.7863 61.2809 23.2158 59.603 22.0934C58.4417 21.3166 58.3923 19.7932 59.516 18.9275C60.2561 18.357 61.1513 18.1725 62.05 18.0064C63.1754 17.8 64.3316 17.691 65.4195 17.0065C65.3547 18.0181 65.5014 18.951 65.307 19.8771Z" fill="#002352"/>
<path d="M10.7957 18.6441C12.0252 17.0369 13.7338 16.9798 14.9207 17.5872C15.3743 17.8187 15.7324 18.1576 16.0342 18.5569C16.1843 19.0753 16.4776 19.5367 16.498 20.1139C16.5355 21.1943 16.0717 22.0265 15.3078 22.7177C14.7229 23.2462 14.1295 23.7764 13.4508 24.1975C12.5743 23.6657 11.7899 23.0147 11.1231 22.2496C10.3779 21.394 10.2449 20.384 10.5519 19.3119C10.6167 19.0854 10.7139 18.8673 10.7957 18.6441Z" fill="#DF000E"/>
<path d="M19.0219 16.0134C18.1983 15.3641 17.5606 14.6058 17.4889 13.5102C17.4088 12.2821 17.9817 11.3694 18.9264 10.6362C19.3596 10.5473 19.7467 10.3359 20.2054 10.2822C21.8049 10.0976 22.7786 11.0338 23.6892 12.0858C24.0114 12.4582 24.3508 12.8324 24.5622 13.287C23.9978 14.2534 23.2543 15.0839 22.3642 15.7483C21.4996 16.3942 20.4884 16.4848 19.4517 16.1191C19.3135 16.0721 19.1652 16.0486 19.0219 16.0134Z" fill="#418836"/>
<path d="M79.742 39.2972C79.7403 38.1429 79.7317 36.9886 79.7164 35.8326C79.7062 35.076 79.3856 34.6179 78.6643 34.3864C77.7707 34.0995 76.8669 34.1096 75.9836 34.4418C75.6869 34.5525 75.4226 34.727 75.2265 34.9837C74.9179 35.388 74.8906 35.8494 75.1992 36.0692C75.6119 36.3611 75.9683 36.2319 76.2616 35.8645C76.5361 35.5222 76.8959 35.3612 77.3359 35.3931C77.7417 35.4216 78.1476 35.487 78.18 35.9987C78.2124 36.5373 77.769 36.5457 77.4075 36.5792C76.8141 36.6346 76.2172 36.6715 75.6579 36.8963C74.9503 37.1799 74.5853 37.7251 74.6126 38.4298C74.6416 39.1529 75.0747 39.7133 75.7995 39.9247C76.7066 40.1898 77.5252 40.0136 78.2533 39.376C78.3846 39.5522 78.463 39.7032 78.5824 39.8106C78.8552 40.0539 79.169 40.0891 79.5169 39.9549C79.8767 39.8173 79.7437 39.5321 79.742 39.2972ZM76.8942 38.8324C76.5583 38.7821 76.2752 38.6395 76.236 38.2721C76.2002 37.9332 76.4168 37.7151 76.722 37.6245C77.1807 37.4902 77.6513 37.3963 78.1425 37.2788C78.3897 38.3996 77.6667 38.9499 76.8942 38.8324Z" fill="#1A2C50"/>
<path d="M39.2356 35.6345C39.2168 35.0155 38.8604 34.6128 38.2807 34.4131C37.4093 34.1128 36.5311 34.1078 35.6546 34.3964C35.2948 34.5155 34.9725 34.7034 34.7542 35.0138C34.5206 35.346 34.3535 35.7251 34.7338 36.0473C35.1192 36.3744 35.4875 36.2553 35.7876 35.8795C36.0894 35.502 36.4867 35.3527 36.9676 35.3963C37.3752 35.4332 37.7265 35.5741 37.7401 36.0255C37.7537 36.46 37.3922 36.5321 37.041 36.5674C36.4322 36.6278 35.8149 36.6546 35.2368 36.8811C34.495 37.1714 34.1455 37.6848 34.1727 38.4448C34.1983 39.1662 34.6246 39.7115 35.3647 39.9262C36.2736 40.188 37.0921 40.0084 37.8219 39.3524C37.9703 39.6511 38.1272 39.8709 38.4085 39.9782C38.8229 40.1376 39.3191 39.938 39.3157 39.584C39.3004 38.2686 39.2748 36.9516 39.2356 35.6345ZM36.4322 38.8323C36.0945 38.782 35.8098 38.636 35.7688 38.2703C35.7313 37.928 35.9632 37.7133 36.2668 37.6244C36.7425 37.4834 37.2302 37.3844 37.7162 37.2687C37.8254 38.3726 37.336 38.9666 36.4322 38.8323Z" fill="#1A2C50"/>
<path d="M46.6414 37.3861C47.141 37.423 47.6475 37.3945 48.1505 37.3945C48.6348 37.3945 49.1191 37.3962 49.6051 37.3945C50.2582 37.3912 50.4304 37.1999 50.3622 36.5573C50.2036 35.0406 48.9588 34.091 47.2843 34.2068C45.8741 34.3058 44.8526 35.2671 44.6992 36.6429C44.515 38.282 45.1886 39.4514 46.5698 39.8541C47.4804 40.1192 48.3722 40.0303 49.2351 39.6461C49.5284 39.5152 49.7824 39.329 49.9393 39.0438C50.1081 38.7401 50.1133 38.4347 49.8387 38.1915C49.5676 37.9515 49.2589 37.9767 48.9708 38.178C48.819 38.2837 48.6894 38.4179 48.5342 38.5203C47.7174 39.0572 46.5749 38.7283 46.3021 37.8811C46.2049 37.5824 46.1776 37.3509 46.6414 37.3861ZM46.2168 36.1614C46.43 35.6731 46.9177 35.3141 47.4736 35.3024C48.0482 35.2889 48.466 35.544 48.7354 36.0456C48.8906 36.3342 48.9196 36.5271 48.4797 36.5003C48.1454 36.4785 47.8095 36.4969 47.4753 36.4969C47.141 36.4969 46.8051 36.4869 46.4709 36.5003C46.2015 36.5087 46.0872 36.46 46.2168 36.1614Z" fill="#1A2C50"/>
<path d="M15.8381 8.25674C14.5626 9.71471 12.1718 9.78182 10.7889 7.91113C10.6729 7.49169 10.4547 7.1058 10.4172 6.65784C10.3285 5.58576 10.6627 4.68313 11.4642 3.94492C12.0883 3.37112 12.7141 2.80069 13.4508 2.36279C14.2062 2.86612 14.8797 3.46004 15.5192 4.10095C16.5765 5.15961 16.7862 6.33739 16.1416 7.69637C16.1297 7.71986 16.1195 7.74503 16.1109 7.7702C16.0461 7.94636 15.9609 8.11581 15.8381 8.25674Z" fill="#DF000E"/>
<path d="M7.99848 10.6308C9.64061 11.8841 9.64744 13.426 9.19214 14.5031C8.94147 15.0953 8.48617 15.5215 8.00018 15.9241C7.30786 16.1674 6.63088 16.4325 5.85841 16.2731C5.33831 16.1657 4.83868 16.0164 4.44818 15.6792C3.64161 14.9796 2.90324 14.2145 2.36098 13.2884C2.91006 12.3858 3.59215 11.5821 4.41408 10.9211C5.37924 10.1426 6.48594 10.109 7.62844 10.5201C7.75122 10.562 7.8757 10.5939 7.99848 10.6308Z" fill="#418836"/>
</svg>
