<svg width="73" height="21" viewBox="0 0 73 21" fill="none" xmlns="http://www.w3.org/2000/svg">
<g clip-path="url(#clip0)">
<path d="M33.5709 4.74829C35.0872 4.74829 36.2085 5.61042 36.2085 6.45969C36.2085 6.98726 35.8263 7.24461 35.3676 7.24461C34.5138 7.24461 34.8196 6.16373 33.5199 6.16373C32.8191 6.16373 31.9909 6.6527 31.9909 8.29976C31.9909 9.43211 32.5261 10.1784 33.5072 10.1784C34.7687 10.1784 34.5011 9.00748 35.4568 9.00748C35.9155 9.00748 36.2085 9.34204 36.2085 9.70233C36.2085 10.5001 35.3166 11.6067 33.4562 11.6067C31.2263 11.6067 30.1815 10.217 30.1815 8.31263C30.1815 6.2152 31.3538 4.74829 33.5709 4.74829Z" fill="#002352"/>
<path d="M43.1021 9.68929C43.1021 10.4485 43.2932 10.6286 43.2932 10.9117C43.2932 11.3235 42.911 11.6066 42.4777 11.6066C41.7004 11.6066 41.4329 11.1047 41.4074 10.5386C40.7066 11.3235 39.8783 11.6066 38.9354 11.6066C37.9033 11.6066 36.8966 10.8989 36.8966 9.74076C36.8966 8.22238 38.0307 7.79775 39.4196 7.64334L40.5154 7.51466C40.9487 7.46319 41.2927 7.36025 41.2927 6.84554C41.2927 6.33084 40.7575 6.09922 40.1586 6.09922C38.8207 6.09922 38.7825 7.1029 38.0689 7.1029C37.6102 7.1029 37.3044 6.78121 37.3044 6.40804C37.3044 5.68746 38.3238 4.76099 40.1714 4.76099C41.9043 4.76099 43.1021 5.32716 43.1021 6.63966V9.68929ZM41.2927 8.37679C41.0888 8.56981 40.7193 8.62128 40.5154 8.65988L39.8656 8.76282C39.1138 8.87863 38.706 9.11025 38.706 9.66356C38.706 10.0753 39.0883 10.4099 39.7127 10.4099C40.7066 10.4099 41.3054 9.75363 41.3054 9.08452V8.37679H41.2927Z" fill="#002352"/>
<path d="M44.4782 5.66181C44.4782 5.17284 44.6821 4.7482 45.3829 4.7482C46.0837 4.7482 46.2876 5.17284 46.2876 5.66181V12.0956C46.2876 13.4081 45.7907 14.0386 44.44 14.0386C43.7519 14.0386 43.4461 13.7813 43.4461 13.2537C43.4461 12.7905 43.6372 12.6103 44.0195 12.6103H44.2234C44.4018 12.6103 44.4782 12.4559 44.4782 12.2886V5.66181ZM45.3702 2.23901C45.8926 2.23901 46.3131 2.66365 46.3131 3.19122C46.3131 3.71879 45.8926 4.14343 45.3702 4.14343C44.8478 4.14343 44.4273 3.71879 44.4273 3.19122C44.44 2.66365 44.8605 2.23901 45.3702 2.23901Z" fill="#002352"/>
<path d="M53.4105 9.68929C53.4105 10.4485 53.6016 10.6286 53.6016 10.9117C53.6016 11.3235 53.2194 11.6066 52.7861 11.6066C52.0089 11.6066 51.7413 11.1047 51.7158 10.5386C51.015 11.3235 50.1867 11.6066 49.2438 11.6066C48.2117 11.6066 47.2051 10.8989 47.2051 9.74076C47.2051 8.22238 48.3391 7.79775 49.728 7.64334L50.8238 7.51466C51.2571 7.46319 51.6011 7.36025 51.6011 6.84554C51.6011 6.33084 51.0659 6.09922 50.4671 6.09922C49.1291 6.09922 49.0909 7.1029 48.3773 7.1029C47.9186 7.1029 47.6128 6.78121 47.6128 6.40804C47.6128 5.68746 48.6322 4.76099 50.4798 4.76099C52.2127 4.76099 53.4105 5.32716 53.4105 6.63966V9.68929ZM51.6011 8.37679C51.3972 8.56981 51.0277 8.62128 50.8238 8.65988L50.174 8.76282C49.4222 8.87863 49.0145 9.11025 49.0145 9.66356C49.0145 10.0753 49.3967 10.4099 50.0211 10.4099C51.015 10.4099 51.6139 9.75363 51.6139 9.08452V8.37679H51.6011Z" fill="#002352"/>
<path d="M55.462 1.80151H56.6215V11.2464H55.462V1.80151Z" fill="#707074"/>
<path d="M61.3234 11.2464L61.2342 10.4358H61.196C60.8392 10.9376 60.1511 11.388 59.2464 11.388C57.9595 11.388 57.2969 10.4744 57.2969 9.53504C57.2969 7.97805 58.673 7.12879 61.1323 7.14166V7.01298C61.1323 6.48541 60.9921 5.52033 59.6797 5.52033C59.0808 5.52033 58.4692 5.70048 58.0232 5.99644L57.7556 5.22438C58.278 4.87695 59.0426 4.6582 59.8453 4.6582C61.7949 4.6582 62.2663 5.99644 62.2663 7.29607V9.70232C62.2663 10.2556 62.2918 10.8089 62.3683 11.2464H61.3234ZM61.1578 7.96519C59.8963 7.93945 58.4564 8.17107 58.4564 9.41923C58.4564 10.1784 58.9534 10.5387 59.5522 10.5387C60.3805 10.5387 60.9029 10.0111 61.094 9.45783C61.1323 9.34202 61.1578 9.20048 61.1578 9.08467V7.96519Z" fill="#707074"/>
<path d="M63.5278 11.2464C63.5533 10.8089 63.5788 10.1526 63.5788 9.58644V1.80151H64.7256V5.84195H64.7511C65.1588 5.12137 65.8979 4.65813 66.93 4.65813C68.51 4.65813 69.6313 5.9835 69.6186 7.93938C69.6186 10.2427 68.1787 11.3879 66.7643 11.3879C65.8469 11.3879 65.1078 11.0276 64.6364 10.1784H64.5982L64.5472 11.2464H63.5278ZM64.7256 8.67284C64.7256 8.81438 64.7511 8.96879 64.7765 9.09747C65.0059 9.90813 65.6685 10.4614 66.5095 10.4614C67.72 10.4614 68.4463 9.45776 68.4463 7.99085C68.4463 6.70409 67.7837 5.59747 66.5477 5.59747C65.7577 5.59747 65.0186 6.13791 64.7765 7.03865C64.7511 7.16732 64.7128 7.3346 64.7128 7.51475V8.67284H64.7256Z" fill="#707074"/>
<path d="M26.5372 15.8145H26.9195V18.4909H28.181V18.8126H26.5245V15.8145H26.5372Z" fill="#002352"/>
<path d="M29.7865 18.8127L29.761 18.5425H29.7483C29.6336 18.7097 29.4042 18.8641 29.0984 18.8641C28.6652 18.8641 28.4486 18.5553 28.4486 18.2465C28.4486 17.7318 28.9073 17.4358 29.7355 17.4487V17.4101C29.7355 17.23 29.6846 16.9083 29.2513 16.9083C29.0475 16.9083 28.8436 16.9726 28.6907 17.0627L28.6015 16.8053C28.7799 16.6895 29.0347 16.6123 29.3023 16.6123C29.9522 16.6123 30.1178 17.0627 30.1178 17.4873V18.298C30.1178 18.491 30.1305 18.6711 30.156 18.8127H29.7865ZM29.7228 17.7061C29.3023 17.6932 28.8181 17.7704 28.8181 18.195C28.8181 18.4524 28.9838 18.5682 29.1876 18.5682C29.468 18.5682 29.6463 18.388 29.6973 18.2079C29.7101 18.1693 29.7228 18.1178 29.7228 18.0792V17.7061Z" fill="#002352"/>
<path d="M30.6275 18.8127C30.6402 18.6712 30.6402 18.4524 30.6402 18.2594V15.6602H31.0225V17.0113H31.0352C31.1754 16.7668 31.4175 16.6124 31.7615 16.6124C32.284 16.6124 32.6662 17.0627 32.6535 17.7061C32.6535 18.4782 32.1693 18.8513 31.6978 18.8513C31.392 18.8513 31.1372 18.7355 30.9843 18.4524H30.9715L30.9588 18.8127H30.6275ZM31.0352 17.9506C31.0352 18.0021 31.048 18.0535 31.048 18.0921C31.1244 18.3624 31.3411 18.5554 31.6341 18.5554C32.0419 18.5554 32.284 18.2208 32.284 17.7318C32.284 17.2943 32.0674 16.9341 31.6469 16.9341C31.3793 16.9341 31.1372 17.1142 31.0607 17.4102C31.048 17.4488 31.0352 17.5131 31.0352 17.5646V17.9506Z" fill="#002352"/>
<path d="M35.049 17.7189C35.049 18.5167 34.5011 18.8641 33.9914 18.8641C33.418 18.8641 32.972 18.4395 32.972 17.7575C32.972 17.0369 33.4435 16.6123 34.0297 16.6123C34.6413 16.6123 35.049 17.0627 35.049 17.7189ZM33.3671 17.7318C33.3671 18.2079 33.6346 18.5553 34.0169 18.5553C34.3864 18.5553 34.6668 18.2079 34.6668 17.7189C34.6668 17.3586 34.4884 16.8954 34.0297 16.8954C33.5709 16.8954 33.3671 17.3329 33.3671 17.7318Z" fill="#002352"/>
<path d="M35.4823 17.3329C35.4823 17.0755 35.4823 16.8568 35.4695 16.6638H35.8136L35.8263 17.0884H35.8391C35.941 16.8053 36.1704 16.6123 36.4252 16.6123C36.4634 16.6123 36.5016 16.6123 36.5399 16.6252V16.9983C36.5016 16.9855 36.4634 16.9855 36.4125 16.9855C36.1449 16.9855 35.941 17.1913 35.89 17.4873C35.8773 17.5388 35.8773 17.6031 35.8773 17.6675V18.8127H35.495V17.3329H35.4823Z" fill="#002352"/>
<path d="M38.0562 18.8127L38.0307 18.5425H38.018C37.9033 18.7097 37.6739 18.8641 37.3681 18.8641C36.9349 18.8641 36.7182 18.5553 36.7182 18.2465C36.7182 17.7318 37.177 17.4358 38.0052 17.4487V17.4101C38.0052 17.23 37.9542 16.9083 37.521 16.9083C37.3171 16.9083 37.1133 16.9726 36.9603 17.0627L36.8712 16.8053C37.0495 16.6895 37.3044 16.6123 37.572 16.6123C38.2218 16.6123 38.3875 17.0627 38.3875 17.4873V18.298C38.3875 18.491 38.4002 18.6711 38.4257 18.8127H38.0562ZM37.9925 17.7061C37.572 17.6932 37.0878 17.7704 37.0878 18.195C37.0878 18.4524 37.2534 18.5682 37.4573 18.5682C37.7376 18.5682 37.916 18.388 37.967 18.2079C37.9797 18.1693 37.9925 18.1178 37.9925 18.0792V17.7061Z" fill="#002352"/>
<path d="M39.3686 16.0461V16.6638H39.9293V16.9597H39.3686V18.1178C39.3686 18.3881 39.4451 18.5296 39.6617 18.5296C39.7636 18.5296 39.8401 18.5167 39.8911 18.5039L39.9038 18.7998C39.8274 18.8256 39.7127 18.8513 39.5598 18.8513C39.3814 18.8513 39.2285 18.7998 39.1393 18.684C39.0246 18.5682 38.9864 18.3752 38.9864 18.1178V16.9597H38.6551V16.6638H38.9864V16.1491L39.3686 16.0461Z" fill="#002352"/>
<path d="M42.1847 17.7189C42.1847 18.5167 41.6367 18.8641 41.1271 18.8641C40.5537 18.8641 40.1077 18.4395 40.1077 17.7575C40.1077 17.0369 40.5791 16.6123 41.1653 16.6123C41.7642 16.6123 42.1847 17.0627 42.1847 17.7189ZM40.4899 17.7318C40.4899 18.2079 40.7575 18.5553 41.1398 18.5553C41.5093 18.5553 41.7896 18.2079 41.7896 17.7189C41.7896 17.3586 41.6113 16.8954 41.1525 16.8954C40.6811 16.9083 40.4899 17.3329 40.4899 17.7318Z" fill="#002352"/>
<path d="M42.6051 17.3329C42.6051 17.0755 42.6051 16.8568 42.5924 16.6638H42.9364L42.9492 17.0884H42.9619C43.0639 16.8053 43.2932 16.6123 43.5481 16.6123C43.5863 16.6123 43.6245 16.6123 43.6627 16.6252V16.9983C43.6245 16.9855 43.5863 16.9855 43.5353 16.9855C43.2677 16.9855 43.0639 17.1913 43.0129 17.4873C43.0001 17.5388 43.0001 17.6031 43.0001 17.6675V18.8127H42.6179V17.3329H42.6051Z" fill="#002352"/>
<path d="M44.4273 16.0589C44.4273 16.1876 44.3381 16.3034 44.1852 16.3034C44.045 16.3034 43.9558 16.2005 43.9558 16.0589C43.9558 15.9174 44.0577 15.8145 44.1979 15.8145C44.3253 15.8145 44.4273 15.9174 44.4273 16.0589ZM43.994 18.8126V16.6637H44.3763V18.8126H43.994Z" fill="#002352"/>
<path d="M46.8865 17.7189C46.8865 18.5167 46.3386 18.8641 45.8289 18.8641C45.2555 18.8641 44.8096 18.4395 44.8096 17.7575C44.8096 17.0369 45.281 16.6123 45.8672 16.6123C46.4788 16.6123 46.8865 17.0627 46.8865 17.7189ZM45.2046 17.7318C45.2046 18.2079 45.4721 18.5553 45.8544 18.5553C46.2239 18.5553 46.5043 18.2079 46.5043 17.7189C46.5043 17.3586 46.3259 16.8954 45.8672 16.8954C45.3957 16.9083 45.2046 17.3329 45.2046 17.7318Z" fill="#002352"/>
<path d="M50.1485 15.6472V18.2465C50.1485 18.4395 50.1485 18.6582 50.1613 18.7998H49.8172L49.8045 18.4266H49.7917C49.6771 18.6711 49.4095 18.8513 49.0654 18.8513C48.5557 18.8513 48.148 18.4138 48.148 17.7575C48.148 17.0369 48.5812 16.5994 49.1037 16.5994C49.435 16.5994 49.6516 16.7538 49.7408 16.934H49.7535V15.6472H50.1485ZM49.7663 17.5388C49.7663 17.4873 49.7663 17.423 49.7535 17.3715C49.7025 17.127 49.4859 16.9211 49.1929 16.9211C48.7978 16.9211 48.5557 17.2814 48.5557 17.7575C48.5557 18.195 48.7724 18.5553 49.1801 18.5553C49.435 18.5553 49.6771 18.388 49.7535 18.0921C49.7663 18.0406 49.7663 17.9891 49.7663 17.9248V17.5388Z" fill="#002352"/>
<path d="M50.9513 17.809C50.964 18.3366 51.2953 18.5553 51.6776 18.5553C51.9579 18.5553 52.1236 18.5038 52.2637 18.4395L52.3274 18.7226C52.1873 18.7869 51.9579 18.8513 51.6139 18.8513C50.964 18.8513 50.569 18.4138 50.569 17.7704C50.569 17.127 50.9513 16.6123 51.5629 16.6123C52.2637 16.6123 52.4421 17.23 52.4421 17.6288C52.4421 17.7061 52.4294 17.7704 52.4294 17.809H50.9513ZM52.0853 17.5259C52.0853 17.2814 51.9834 16.8954 51.5502 16.8954C51.1552 16.8954 50.9895 17.2557 50.9513 17.5259H52.0853Z" fill="#002352"/>
<path d="M54.277 15.8145V18.8126H53.8947V15.8145H54.277Z" fill="#002352"/>
<path d="M54.8631 17.2429C54.8631 17.0241 54.8631 16.844 54.8504 16.6638H55.1944L55.2199 17.0241H55.2327C55.3346 16.8183 55.5894 16.6252 55.9335 16.6252C56.2265 16.6252 56.6853 16.8054 56.6853 17.5388V18.8256H56.303V17.5903C56.303 17.2429 56.1756 16.9598 55.8061 16.9598C55.5512 16.9598 55.3473 17.14 55.2836 17.3587C55.2709 17.4102 55.2581 17.4745 55.2581 17.5388V18.8385H54.8759V17.2429H54.8631Z" fill="#002352"/>
<path d="M57.2204 17.2429C57.2204 17.0241 57.2204 16.844 57.2077 16.6638H57.5517L57.5772 17.0241H57.59C57.6919 16.8183 57.9467 16.6252 58.2908 16.6252C58.5838 16.6252 59.0426 16.8054 59.0426 17.5388V18.8256H58.6603V17.5903C58.6603 17.2429 58.5329 16.9598 58.1634 16.9598C57.9085 16.9598 57.7046 17.14 57.6409 17.3587C57.6282 17.4102 57.6154 17.4745 57.6154 17.5388V18.8385H57.2332V17.2429H57.2204Z" fill="#002352"/>
<path d="M61.5273 17.7189C61.5273 18.5167 60.9794 18.8641 60.4697 18.8641C59.8963 18.8641 59.4503 18.4395 59.4503 17.7575C59.4503 17.0369 59.9218 16.6123 60.5079 16.6123C61.1195 16.6123 61.5273 17.0627 61.5273 17.7189ZM59.8453 17.7318C59.8453 18.2079 60.1129 18.5553 60.4952 18.5553C60.8647 18.5553 61.145 18.2079 61.145 17.7189C61.145 17.3586 60.9666 16.8954 60.5079 16.8954C60.0365 16.9083 59.8453 17.3329 59.8453 17.7318Z" fill="#002352"/>
<path d="M62.0625 16.6638L62.483 17.8734C62.5594 18.0664 62.6104 18.2465 62.6486 18.4267H62.6613C62.7123 18.2465 62.776 18.0664 62.8397 17.8734L63.2475 16.6638H63.6552L62.8143 18.8127H62.4447L61.6292 16.6638H62.0625Z" fill="#002352"/>
<path d="M65.1461 18.8127L65.1206 18.5425H65.1078C64.9932 18.7097 64.7638 18.8641 64.458 18.8641C64.0248 18.8641 63.8081 18.5553 63.8081 18.2465C63.8081 17.7318 64.2669 17.4358 65.0951 17.4487V17.4101C65.0951 17.23 65.0441 16.9083 64.6109 16.9083C64.407 16.9083 64.2031 16.9726 64.0502 17.0627L63.961 16.8053C64.1394 16.6895 64.3943 16.6123 64.6619 16.6123C65.3117 16.6123 65.4774 17.0627 65.4774 17.4873V18.298C65.4774 18.491 65.4901 18.6711 65.5156 18.8127H65.1461ZM65.0951 17.7061C64.6746 17.6932 64.1904 17.7704 64.1904 18.195C64.1904 18.4524 64.3561 18.5682 64.5599 18.5682C64.8403 18.5682 65.0187 18.388 65.0696 18.2079C65.0824 18.1693 65.0951 18.1178 65.0951 18.0792V17.7061Z" fill="#002352"/>
<path d="M67.5544 18.7355C67.4524 18.787 67.2231 18.8642 66.9427 18.8642C66.3056 18.8642 65.8851 18.4267 65.8851 17.7705C65.8851 17.1142 66.3311 16.6252 67.0319 16.6252C67.2613 16.6252 67.4652 16.6767 67.5671 16.7411L67.4779 17.037C67.3887 16.9855 67.2358 16.9341 67.0319 16.9341C66.5477 16.9341 66.2801 17.2944 66.2801 17.7447C66.2801 18.2466 66.5987 18.5554 67.0192 18.5554C67.2358 18.5554 67.3887 18.5039 67.4906 18.4525L67.5544 18.7355Z" fill="#002352"/>
<path d="M68.3444 16.0589C68.3444 16.1876 68.2552 16.3034 68.1023 16.3034C67.9621 16.3034 67.8729 16.2005 67.8729 16.0589C67.8729 15.9174 67.9748 15.8145 68.115 15.8145C68.2552 15.8145 68.3444 15.9174 68.3444 16.0589ZM67.9111 18.8126V16.6637H68.2934V18.8126H67.9111Z" fill="#002352"/>
<path d="M70.8163 17.7188C70.8163 18.5166 70.2684 18.8641 69.7588 18.8641C69.1854 18.8641 68.7394 18.4394 68.7394 17.7575C68.7394 17.0369 69.2108 16.6122 69.797 16.6122C70.3959 16.6122 70.8163 17.0626 70.8163 17.7188ZM69.1216 17.7317C69.1216 18.2078 69.3892 18.5552 69.7715 18.5552C70.141 18.5552 70.4213 18.2078 70.4213 17.7188C70.4213 17.3586 70.243 16.8953 69.7842 16.8953C69.3128 16.9082 69.1216 17.3328 69.1216 17.7317ZM70.3449 15.7244L69.8097 16.3549H69.5294L69.9117 15.7244H70.3449Z" fill="#002352"/>
<path d="M71.2496 17.2429C71.2496 17.0241 71.2496 16.844 71.2368 16.6638H71.5809L71.6064 17.0241H71.6191C71.721 16.8183 71.9759 16.6252 72.3199 16.6252C72.613 16.6252 73.0717 16.8054 73.0717 17.5388V18.8256H72.6894V17.5903C72.6894 17.2429 72.562 16.9598 72.1925 16.9598C71.9376 16.9598 71.7338 17.14 71.6701 17.3587C71.6573 17.4102 71.6446 17.4745 71.6446 17.5388V18.8385H71.2623V17.2429H71.2496Z" fill="#002352"/>
<path d="M8.21321 14.25H6.23486V16.2478H8.21321V14.25Z" fill="#F8AC31"/>
<path d="M6.23486 16.2478H4.25652V18.2456H6.23486V16.2478Z" fill="#F8AC31"/>
<path d="M8.21321 16.2478H6.23486V18.2456H8.21321V16.2478Z" fill="#F8AC31"/>
<path d="M8.21321 18.2456H6.23486V20.2434H8.21321V18.2456Z" fill="#F8AC31"/>
<path d="M2.27817 12.2522H0.29982V14.25H2.27817V12.2522Z" fill="#00B2B7"/>
<path d="M4.25652 12.2522H2.27817V14.25H4.25652V12.2522Z" fill="#00B2B7"/>
<path d="M6.23486 12.2522H4.25652V14.25H6.23486V12.2522Z" fill="#00B2B7"/>
<path d="M4.25652 14.25H2.27817V16.2478H4.25652V14.25Z" fill="#00B2B7"/>
<path d="M4.25652 8.25635H2.27817V10.2542H4.25652V8.25635Z" fill="#418836"/>
<path d="M6.23486 8.25635H4.25652V10.2542H6.23486V8.25635Z" fill="#418836"/>
<path d="M6.23486 10.2544H4.25652V12.2522H6.23486V10.2544Z" fill="#418836"/>
<path d="M4.25652 10.2544H2.27817V12.2522H4.25652V10.2544Z" fill="#418836"/>
<path d="M16.1266 8.25635H14.1483V10.2542H16.1266V8.25635Z" fill="#418836"/>
<path d="M18.105 8.25635H16.1266V10.2542H18.105V8.25635Z" fill="#418836"/>
<path d="M18.105 10.2544H16.1266V12.2522H18.105V10.2544Z" fill="#418836"/>
<path d="M16.1266 10.2544H14.1483V12.2522H16.1266V10.2544Z" fill="#418836"/>
<path d="M10.1916 14.25H8.21321V16.2478H10.1916V14.25Z" fill="#DF000E"/>
<path d="M12.1699 14.25H10.1915V16.2478H12.1699V14.25Z" fill="#DF000E"/>
<path d="M12.1699 16.2478H10.1915V18.2456H12.1699V16.2478Z" fill="#DF000E"/>
<path d="M10.1916 16.2478H8.21321V18.2456H10.1916V16.2478Z" fill="#DF000E"/>
<path d="M10.1916 2.26294H8.21321V4.26077H10.1916V2.26294Z" fill="#DF000E"/>
<path d="M12.1699 2.26294H10.1915V4.26077H12.1699V2.26294Z" fill="#DF000E"/>
<path d="M12.1699 4.26074H10.1915V6.25857H12.1699V4.26074Z" fill="#DF000E"/>
<path d="M10.1916 4.26074H8.21321V6.25857H10.1916V4.26074Z" fill="#DF000E"/>
<path d="M2.27817 0.265137H0.29982V2.26296H2.27817V0.265137Z" fill="#72742E"/>
<path d="M4.25652 0.265137H2.27817V2.26296H4.25652V0.265137Z" fill="#72742E"/>
<path d="M6.23486 0.265137H4.25652V2.26296H6.23486V0.265137Z" fill="#72742E"/>
<path d="M8.21321 0.265137H6.23486V2.26296H8.21321V0.265137Z" fill="#F8AC31"/>
<path d="M6.23486 2.26294H4.25652V4.26077H6.23486V2.26294Z" fill="#F8AC31"/>
<path d="M8.21321 2.26294H6.23486V4.26077H8.21321V2.26294Z" fill="#F8AC31"/>
<path d="M8.21321 4.26074H6.23486V6.25857H8.21321V4.26074Z" fill="#F8AC31"/>
<path d="M4.25652 2.26294H2.27817V4.26077H4.25652V2.26294Z" fill="#72742E"/>
<path d="M2.27817 2.26294H0.29982V4.26077H2.27817V2.26294Z" fill="#72742E"/>
<path d="M2.27817 4.26074H0.29982V6.25857H2.27817V4.26074Z" fill="#72742E"/>
<path d="M4.25652 4.26074H2.27817V6.25857H4.25652V4.26074Z" fill="#93C12F"/>
<path d="M2.27817 6.25879H0.29982V8.25662H2.27817V6.25879Z" fill="#93C12F"/>
<path d="M4.25652 6.25879H2.27817V8.25662H4.25652V6.25879Z" fill="#93C12F"/>
<path d="M6.23486 6.25879H4.25652V8.25662H6.23486V6.25879Z" fill="#93C12F"/>
<path d="M18.105 2.26294L20.0833 2.26294V0.265112L18.105 0.265112V2.26294Z" fill="#B16B3C"/>
<path d="M16.1266 2.26294L18.105 2.26294V0.265112L16.1266 0.265112V2.26294Z" fill="#B16B3C"/>
<path d="M14.1483 2.26294L16.1266 2.26294V0.265112L14.1483 0.265112V2.26294Z" fill="#B16B3C"/>
<path d="M12.1823 2.29248L14.1607 2.29248V0.294653L12.1823 0.294653V2.29248Z" fill="#ED6A60"/>
<path d="M14.1483 4.26074H16.1266V2.26291H14.1483V4.26074Z" fill="#ED6A60"/>
<path d="M12.1823 4.28149H14.1607V2.28367H12.1823V4.28149Z" fill="#ED6A60"/>
<path d="M12.1699 6.25879H14.1483V4.26096H12.1699V6.25879Z" fill="#ED6A60"/>
<path d="M16.1266 4.26074H18.105V2.26291H16.1266V4.26074Z" fill="#B16B3C"/>
<path d="M18.105 4.26074H20.0833V2.26291H18.105V4.26074Z" fill="#A96F3F"/>
<path d="M18.105 6.25879H20.0833V4.26096H18.105V6.25879Z" fill="#B16B3C"/>
<path d="M16.1266 6.25879H18.105V4.26096H16.1266V6.25879Z" fill="#93C12F"/>
<path d="M18.105 8.25635H20.0833V6.25852H18.105V8.25635Z" fill="#93C12F"/>
<path d="M16.1266 8.25635H18.105V6.25852H16.1266V8.25635Z" fill="#93C12F"/>
<path d="M14.1483 8.25635H16.1266V6.25852H14.1483V8.25635Z" fill="#93C12F"/>
<path d="M2.27817 14.25H0.29982V16.2478H2.27817V14.25Z" fill="#218438"/>
<path d="M2.27817 16.2478H0.29982V18.2456H2.27817V16.2478Z" fill="#218438"/>
<path d="M4.25652 16.2478H2.27817V18.2456H4.25652V16.2478Z" fill="#218438"/>
<path d="M2.27817 18.2456H0.29982V20.2434H2.27817V18.2456Z" fill="#218438"/>
<path d="M4.25652 18.2456H2.27817V20.2434H4.25652V18.2456Z" fill="#218438"/>
<path d="M6.23486 18.2456H4.25652V20.2434H6.23486V18.2456Z" fill="#218438"/>
<path d="M12.1699 16.2478H14.1483V14.25H12.1699V16.2478Z" fill="#ED6A60"/>
<path d="M14.1483 18.2456H16.1266V16.2478H14.1483V18.2456Z" fill="#ED6A60"/>
<path d="M12.1699 18.2456H14.1483V16.2478H12.1699V18.2456Z" fill="#ED6A60"/>
<path d="M12.1699 20.2434H14.1483V18.2456H12.1699V20.2434Z" fill="#ED6A60"/>
<path d="M18.105 14.25H20.0833V12.2522H18.105V14.25Z" fill="#00B2B7"/>
<path d="M16.1266 14.25H18.105V12.2522H16.1266V14.25Z" fill="#00B2B7"/>
<path d="M14.1483 14.25H16.1266V12.2522H14.1483V14.25Z" fill="#00B2B7"/>
<path d="M16.1266 16.2478H18.105V14.25H16.1266V16.2478Z" fill="#00B2B7"/>
<path d="M18.105 16.2478H20.0833V14.25H18.105V16.2478Z" fill="#0079A1"/>
<path d="M18.105 18.2456H20.0833V16.2478H18.105V18.2456Z" fill="#0079A1"/>
<path d="M16.1266 18.2456H18.105V16.2478H16.1266V18.2456Z" fill="#0079A1"/>
<path d="M18.105 20.2434H20.0833V18.2456H18.105V20.2434Z" fill="#0079A1"/>
<path d="M16.1266 20.2434H18.105V18.2456H16.1266V20.2434Z" fill="#0079A1"/>
<path d="M14.1483 20.2434H16.1266V18.2456H14.1483V20.2434Z" fill="#0079A1"/>
<g opacity="0.1">
<path opacity="0.1" d="M2.2782 0H2.27744V20.5882H2.2782V0Z" fill="#B16B3C"/>
<path opacity="0.1" d="M4.25655 0H4.25578V20.5882H4.25655V0Z" fill="#B16B3C"/>
<path opacity="0.1" d="M6.2349 0H6.23413V20.3805H6.2349V0Z" fill="#B16B3C"/>
<path opacity="0.1" d="M8.21325 0H8.21248V20.3805H8.21325V0Z" fill="#B16B3C"/>
<path opacity="0.1" d="M10.1916 0H10.1908V20.5882H10.1916V0Z" fill="#B16B3C"/>
<path opacity="0.1" d="M12.17 0H12.1692V20.5882H12.17V0Z" fill="#B16B3C"/>
<path opacity="0.1" d="M14.1483 0H14.1475V20.3805H14.1483V0Z" fill="#B16B3C"/>
<path opacity="0.1" d="M16.1267 0H16.1259V20.3805H16.1267V0Z" fill="#B16B3C"/>
<path opacity="0.1" d="M18.105 0H18.1042V20.3805H18.105V0Z" fill="#B16B3C"/>
<path opacity="0.1" d="M20.3809 2.26294H0V2.26368H20.3809V2.26294Z" fill="#B16B3C"/>
<path opacity="0.1" d="M20.3809 4.26001H0V4.26075H20.3809V4.26001Z" fill="#B16B3C"/>
<path opacity="0.1" d="M20.3809 6.25879H0.205704V6.25953H20.3809V6.25879Z" fill="#B16B3C"/>
<path opacity="0.1" d="M20.3809 8.25635H0.205704V8.25708H20.3809V8.25635Z" fill="#B16B3C"/>
<path opacity="0.1" d="M20.3809 10.2544H0V10.2551H20.3809V10.2544Z" fill="#B16B3C"/>
<path opacity="0.1" d="M20.3809 12.2522H0V12.2529H20.3809V12.2522Z" fill="#B16B3C"/>
<path opacity="0.1" d="M20.3809 14.25H0.205704V14.2507H20.3809V14.25Z" fill="#B16B3C"/>
<path opacity="0.1" d="M20.3809 16.2478H0.205704V16.2485H20.3809V16.2478Z" fill="#B16B3C"/>
<path opacity="0.1" d="M20.3809 18.2449H0.205704V18.2456H20.3809V18.2449Z" fill="#B16B3C"/>
</g>
<path d="M10.1916 8.25635H8.21321V10.2542H10.1916V8.25635Z" fill="#042C61"/>
<path d="M12.1699 8.25635H10.1915V10.2542H12.1699V8.25635Z" fill="#042C61"/>
<path d="M12.1699 10.2544H10.1915V12.2522H12.1699V10.2544Z" fill="#042C61"/>
<path d="M10.1916 10.2544H8.21321V12.2522H10.1916V10.2544Z" fill="#042C61"/>
</g>
<defs>
<clipPath id="clip0">
<rect width="73" height="21" fill="white"/>
</clipPath>
</defs>
</svg>
