<svg width="238" height="77" viewBox="0 0 238 77" fill="none" xmlns="http://www.w3.org/2000/svg">
<rect x="6.43214" y="22.387" width="227" height="53" transform="rotate(-3.62134 6.43214 22.387)" fill="white" stroke="#0079A1" stroke-width="2"/>
<rect x="1.06117" y="16.6516" width="227" height="53" transform="rotate(-3.62134 1.06117 16.6516)" fill="white" stroke="#0079A1" stroke-width="2"/>
<path d="M45.4857 61.2973C51.8304 60.8958 56.1233 56.7541 56.043 50.8856L50.0223 51.2667C49.8125 54.1739 47.9314 56.1081 45.1854 56.2819C41.7401 56.4999 39.4065 53.7194 39.101 48.8926C38.7988 44.117 40.7803 41.0634 44.1914 40.8475C46.9374 40.6738 49.1221 42.4534 49.6126 45.3334L55.6332 44.9524C55.0775 39.1483 50.0994 35.4392 43.8741 35.8332C36.5401 36.2973 32.2149 41.2802 32.7233 49.3134C33.2328 57.3637 38.1176 61.7637 45.4857 61.2973Z" fill="#0079A1"/>
<path d="M69.4577 34.214C62.0043 34.6857 57.6067 39.8786 58.1033 47.7243C58.5998 55.5699 63.5989 60.151 71.0693 59.6782C78.5226 59.2065 82.9042 54.0317 82.4077 46.1861C81.9111 38.3404 76.911 33.7423 69.4577 34.214ZM69.7793 39.2966C73.2758 39.0753 75.7491 41.8984 76.0459 46.5887C76.3417 51.262 74.244 54.3743 70.7476 54.5956C67.2341 54.818 64.7779 51.9938 64.4821 47.3206C64.1853 42.6302 66.2829 39.5179 69.7793 39.2966Z" fill="#0079A1"/>
<path d="M92.1743 57.9144L91.26 43.4682L91.3965 43.4596L102.8 57.2419L107.746 56.9289L106.189 32.3175L100.253 32.6931L101.159 47.0029L101.022 47.0115L89.6786 33.3624L84.6813 33.6786L86.2389 58.29L92.1743 57.9144Z" fill="#0079A1"/>
<path d="M110.246 49.6128C110.616 54.3841 114.664 56.9192 120.94 56.5219C127.285 56.1204 131.13 52.7434 130.82 47.8484C130.574 43.9597 128.251 41.8976 123.331 41.2672L120.104 40.8721C117.495 40.5064 116.357 39.8421 116.273 38.5117C116.178 37.0108 117.565 35.9298 119.748 35.7917C121.999 35.6492 123.722 36.619 123.955 38.4023L129.719 38.0374C129.359 33.4197 125.537 30.6648 119.38 31.0545C113.683 31.415 109.784 34.7441 110.086 39.5197C110.323 43.2549 112.815 45.5631 117.407 46.1458L120.67 46.5728C123.504 46.9757 124.586 47.575 124.673 48.9395C124.767 50.4233 123.25 51.6153 120.811 51.7696C118.491 51.9165 116.527 50.9106 116.198 49.2361L110.246 49.6128Z" fill="#0079A1"/>
<path d="M150.782 49.1365L140.174 49.8079L139.856 44.7935L149.834 44.162L149.542 39.557L139.565 40.1884L139.255 35.2934L149.864 34.622L149.544 29.5735L132.676 30.6411L134.234 55.2525L151.102 54.1849L150.782 49.1365Z" fill="#0079A1"/>
<path d="M152.692 46.036C153.023 51.255 156.742 54.2903 162.268 53.9406C167.914 53.5833 171.095 50.2825 170.746 44.7564L169.704 28.2976L163.462 28.6927L164.501 45.1174C164.639 47.3005 163.708 48.541 161.866 48.6576C160.075 48.771 158.854 47.6153 158.713 45.6549L152.692 46.036Z" fill="#0079A1"/>
<path d="M185.164 26.8911C177.71 27.3628 173.313 32.5558 173.809 40.4014C174.306 48.247 179.305 52.8281 186.775 52.3553C194.229 51.8836 198.61 46.7088 198.114 38.8632C197.617 31.0176 192.617 26.4194 185.164 26.8911ZM185.485 31.9737C188.982 31.7525 191.455 34.5755 191.752 39.2658C192.048 43.9391 189.95 47.0514 186.454 47.2727C182.94 47.4951 180.484 44.6709 180.188 39.9977C179.891 35.3074 181.989 32.195 185.485 31.9737Z" fill="#0079A1"/>
<path d="M200.709 43.8875C201.08 48.6588 205.127 51.1938 211.404 50.7966C217.748 50.3951 221.593 47.018 221.283 42.1231C221.037 38.2343 218.715 36.1723 213.795 35.5419L210.567 35.1468C207.959 34.7811 206.821 34.1168 206.736 32.7864C206.641 31.2855 208.028 30.2045 210.212 30.0664C212.463 29.9239 214.185 30.8937 214.418 32.677L220.183 32.3121C219.822 27.6943 216 24.9395 209.843 25.3292C204.147 25.6897 200.248 29.0188 200.55 33.7944C200.786 37.5296 203.278 39.8378 207.87 40.4205L211.134 40.8475C213.968 41.2504 215.05 41.8497 215.136 43.2142C215.23 44.698 213.713 45.89 211.274 46.0443C208.955 46.1911 206.99 45.1853 206.662 43.5108L200.709 43.8875Z" fill="#0079A1"/>
<path d="M16.5547 28.246C16.6187 29.1734 16.5244 29.9908 16.2717 30.698C16.0187 31.4007 15.6405 31.9773 15.1371 32.4277L16.8769 33.6096L15.6539 34.852L13.4226 33.2998C13.1844 33.3573 12.9358 33.395 12.6766 33.4129C11.8537 33.4697 11.1058 33.3226 10.4329 32.9716C9.76001 32.6206 9.22099 32.0914 8.81585 31.3839C8.4104 30.6718 8.17245 29.8386 8.10202 28.8841L8.06813 28.3931C8.00067 27.4156 8.11641 26.5442 8.41535 25.779C8.71852 25.0089 9.17698 24.404 9.79074 23.9642C10.4087 23.5195 11.1315 23.2687 11.9589 23.2116C12.7864 23.1545 13.5344 23.3038 14.2031 23.6597C14.876 24.0107 15.4132 24.5469 15.8147 25.2684C16.2205 25.985 16.457 26.8297 16.5241 27.8027L16.5547 28.246ZM14.4504 27.9389C14.3786 26.8978 14.1376 26.1196 13.7274 25.6043C13.3173 25.089 12.7667 24.8552 12.0756 24.9028C11.3891 24.9502 10.878 25.255 10.5422 25.8172C10.2061 26.3749 10.0714 27.1699 10.138 28.2023L10.1714 28.6865C10.2414 29.7003 10.4821 30.474 10.8935 31.0075C11.3049 31.541 11.8607 31.7836 12.5608 31.7353C13.2474 31.6879 13.7562 31.3832 14.0875 30.8213C14.4184 30.2549 14.5505 29.4555 14.4839 28.4231L14.4504 27.9389ZM25.3519 22.4243L25.8032 28.9644C25.8782 30.0511 25.5965 30.9339 24.9582 31.6129C24.3244 32.2916 23.4187 32.6716 22.2411 32.7529C21.0818 32.8329 20.1399 32.5895 19.4156 32.0228C18.6913 31.4561 18.2853 30.6367 18.1976 29.5647L17.7411 22.9496L19.787 22.8084L20.2393 29.3621C20.2841 30.0123 20.4715 30.4767 20.8014 30.7554C21.1355 31.0293 21.5776 31.1473 22.1277 31.1093C23.278 31.0299 23.8205 30.3849 23.7552 29.1743L23.2991 22.566L25.3519 22.4243ZM33.5315 27.5129L29.6034 27.784L29.7869 30.4437L34.3971 30.1255L34.5105 31.7691L27.8544 32.2284L27.1692 22.2989L33.8116 21.8405L33.926 23.4977L29.3295 23.8149L29.4928 26.1814L33.4209 25.9103L33.5315 27.5129ZM39.2754 27.788L37.6455 27.9005L37.8963 31.5354L35.8504 31.6766L35.1652 21.7471L38.8546 21.4925C40.0276 21.4115 40.9504 21.6105 41.623 22.0894C42.2956 22.5684 42.6648 23.2852 42.7307 24.24C42.7775 24.9174 42.6688 25.4936 42.4046 25.9687C42.1447 26.4389 41.7262 26.8286 41.1492 27.138L43.5774 31.0474L43.584 31.1429L41.388 31.2945L39.2754 27.788ZM37.5311 26.2433L39.1815 26.1294C39.6953 26.094 40.0841 25.9369 40.3481 25.6583C40.6118 25.3752 40.7278 25.004 40.6961 24.5448C40.6638 24.0765 40.5043 23.7175 40.2175 23.4678C39.9353 23.2178 39.5191 23.1117 38.969 23.1497L37.3255 23.2631L37.5311 26.2433ZM50.5874 26.3359L46.6592 26.607L46.8428 29.2666L51.4529 28.9485L51.5663 30.592L44.9103 31.0514L44.225 21.1219L50.8674 20.6635L50.9818 22.3207L46.3853 22.6379L46.5486 25.0043L50.4768 24.7332L50.5874 26.3359ZM54.8944 20.3856L57.9419 27.4112L59.9819 20.0345L62.6688 19.8491L63.3541 29.7786L61.3013 29.9202L61.114 27.206L60.9953 22.5067L58.8258 30.0911L57.4209 30.188L54.2374 22.9799L54.7649 27.6441L54.9522 30.3584L52.9063 30.4996L52.221 20.5701L54.8944 20.3856ZM73.1098 24.343C73.1773 25.3205 73.0636 26.1895 72.7689 26.9498C72.4742 27.7102 72.0179 28.3127 71.3999 28.7574C70.7864 29.2017 70.0637 29.4526 69.2317 29.51C68.4088 29.5668 67.6609 29.4197 66.988 29.0687C66.3151 28.7177 65.7761 28.1884 65.3709 27.4809C64.9655 26.7689 64.7275 25.9356 64.6571 24.9812L64.6232 24.4902C64.5558 23.5127 64.6715 22.6413 64.9704 21.8761C65.2736 21.106 65.7321 20.501 66.3458 20.0612C66.9638 19.6166 67.6865 19.3657 68.514 19.3086C69.3415 19.2515 70.0895 19.4009 70.7582 19.7567C71.4311 20.1077 71.9683 20.644 72.3698 21.3654C72.7756 22.082 73.0121 22.9268 73.0792 23.8998L73.1098 24.343ZM71.0055 24.036C70.9337 22.9949 70.6927 22.2166 70.2825 21.7013C69.8724 21.186 69.3218 20.9522 68.6307 20.9999C67.9442 21.0473 67.4331 21.3521 67.0973 21.9143C66.7612 22.472 66.6265 23.267 66.6931 24.2993L66.7265 24.7835C66.7965 25.7974 67.0372 26.5711 67.4486 27.1046C67.86 27.6381 68.4158 27.8807 69.1159 27.8323C69.8025 27.785 70.3113 27.4803 70.6426 26.9184C70.9735 26.352 71.1056 25.5526 71.039 24.5202L71.0055 24.036ZM80.0324 26.01C80.0057 25.6236 79.8489 25.3375 79.562 25.1517C79.2748 24.9614 78.7687 24.7771 78.0438 24.5987C77.3185 24.4158 76.7413 24.2272 76.3122 24.033C75.1427 23.5015 74.5223 22.7198 74.451 21.6878C74.414 21.1513 74.5311 20.6635 74.8023 20.2245C75.0777 19.7807 75.4892 19.4211 76.0366 19.1458C76.5886 18.8702 77.217 18.708 77.9217 18.6594C78.6309 18.6104 79.2718 18.6964 79.8444 18.9173C80.4166 19.1336 80.8712 19.4654 81.2081 19.9127C81.5496 20.3596 81.7409 20.8809 81.782 21.4765L79.7361 21.6177C79.7047 21.163 79.5372 20.8206 79.2335 20.5903C78.9295 20.3554 78.5184 20.2559 78.0001 20.2917C77.4999 20.3262 77.1186 20.4598 76.856 20.6927C76.5931 20.9209 76.4736 21.2078 76.4974 21.5534C76.5197 21.8762 76.6998 22.1356 77.0376 22.3315C77.38 22.5272 77.8738 22.6986 78.5189 22.846C79.707 23.1157 80.5849 23.4914 81.1526 23.973C81.7203 24.4546 82.0308 25.0818 82.0842 25.8547C82.1435 26.714 81.865 27.4116 81.2487 27.9475C80.6321 28.4788 79.7737 28.7825 78.6735 28.8584C77.9097 28.9111 77.2045 28.8204 76.5579 28.5864C75.9111 28.3478 75.4049 27.9967 75.0394 27.5332C74.6785 27.0693 74.4759 26.5168 74.4317 25.8758L76.4844 25.7341C76.5601 26.8298 77.2526 27.3325 78.5619 27.2421C79.0484 27.2086 79.4213 27.0846 79.6806 26.8703C79.9396 26.6514 80.0568 26.3647 80.0324 26.01Z" fill="#00AEE8"/>
</svg>
