<svg width="210" height="75" viewBox="0 0 210 75" fill="none" xmlns="http://www.w3.org/2000/svg">
<rect x="7.50053" y="6.24292" width="202" height="55" transform="rotate(3.65763 7.50053 6.24292)" fill="#93C12F"/>
<rect x="4.82562" y="1.06176" width="200" height="53" transform="rotate(3.65763 4.82562 1.06176)" fill="white" stroke="#93C12F" stroke-width="2"/>
<path d="M34.701 17.2953L33.1278 41.9057L43.6507 42.5784C51.1038 43.0548 55.7983 38.7312 56.302 30.8518C56.8057 22.9724 52.694 18.4455 45.2239 17.968L34.701 17.2953ZM41.5649 23.5051L43.8332 23.6501C47.2954 23.8714 49.1992 26.2365 48.9342 30.3808C48.6442 34.9175 46.6105 36.9965 42.9948 36.7654L40.7265 36.6204L41.5649 23.5051ZM76.0645 38.8794L65.9338 38.2318L66.1868 34.275L75.6864 34.8823L76.0179 29.6976L66.5182 29.0903L66.7722 25.1165L76.9029 25.7641L77.2703 20.0165L59.9083 18.9067L58.3351 43.5171L75.6971 44.6269L76.0645 38.8794ZM78.8552 37.5508C78.5582 42.4637 82.3213 45.4785 88.9216 45.9004C95.4708 46.3191 99.8883 43.382 100.21 38.3508C100.465 34.3599 98.3758 31.9488 93.6539 30.8078L90.314 30.0121C88.0037 29.4534 87.0367 28.7751 87.1119 27.5983C87.1904 26.3703 88.4344 25.6621 90.3275 25.7831C92.2718 25.9074 93.7319 26.9083 93.6849 28.4466L100.285 28.8685C100.556 24.0909 97.0814 20.8548 90.5323 20.4362C84.6654 20.0611 80.201 22.9267 79.8827 27.9068C79.6363 31.7612 81.9265 34.5106 86.3959 35.584L89.6163 36.3721C92.2293 37.0186 93.1016 37.571 93.0286 38.7137C92.9523 39.9076 91.5664 40.6923 89.4004 40.5539C87.4561 40.4296 85.8095 39.3996 85.6942 37.988L78.8552 37.5508ZM120.169 41.6987L110.038 41.0511L110.291 37.0944L119.791 37.7016L120.122 32.5169L110.623 31.9096L110.877 27.9358L121.007 28.5834L121.375 22.8359L104.013 21.726L102.439 46.3364L119.801 47.4463L120.169 41.6987ZM136.581 23.3798C128.974 22.8936 123.87 27.4649 123.367 35.3273C122.865 43.1897 127.33 48.3556 134.953 48.843C142.56 49.3292 147.663 44.7749 148.165 36.9125C148.668 29.0501 144.187 23.8661 136.581 23.3798ZM136.212 29.1444C139.231 29.3374 141.07 32.1778 140.798 36.4415C140.526 40.6882 138.357 43.2724 135.322 43.0784C132.286 42.8843 130.464 40.045 130.735 35.7983C131.008 31.5345 133.194 28.9514 136.212 29.1444ZM149.975 42.0971C149.678 47.01 153.441 50.0248 160.041 50.4467C166.59 50.8654 171.008 47.9283 171.329 42.8971C171.585 38.9062 169.495 36.495 164.773 35.3541L161.434 34.5583C159.123 33.9997 158.156 33.3214 158.231 32.1446C158.31 30.9166 159.554 30.2084 161.447 30.3294C163.391 30.4537 164.851 31.4546 164.804 32.9929L171.405 33.4148C171.676 28.6372 168.201 25.4011 161.652 24.9825C155.785 24.6074 151.32 27.473 151.002 32.453C150.756 36.3075 153.046 39.0568 157.515 40.1303L160.736 40.9184C163.349 41.5649 164.221 42.1173 164.148 43.26C164.072 44.4538 162.686 45.2386 160.52 45.1001C158.576 44.9759 156.929 43.9459 156.814 42.5343L149.975 42.0971Z" fill="#93C12F"/>
</svg>
