<svg width="94" height="62" viewBox="0 0 94 62" fill="none" xmlns="http://www.w3.org/2000/svg">
<rect x="1" y="8" width="85" height="53" stroke="#DF000E" stroke-width="2"/>
<rect x="7" width="87" height="55" fill="#FFAEA8"/>
<path d="M30.007 43H31.007V42V29.9831L40.3158 42.5939L40.6155 43H41.1203H47.468H48.468V42V13.8164V12.8164H47.468H39.6555H38.6555V13.8164V25.6184L29.4224 13.2192L29.1225 12.8164H28.6203H22.1945H21.1945V13.8164V42V43H22.1945H30.007ZM65.2898 12.3281C60.7161 12.3281 56.89 13.7996 54.2079 16.5482C51.5284 19.2942 50.0906 23.2121 50.0906 27.918C50.0906 32.6229 51.523 36.5366 54.2009 39.2783C56.8814 42.0226 60.7078 43.4883 65.2898 43.4883C69.8626 43.4883 73.6886 42.0223 76.3711 39.2787C79.0512 36.5374 80.4891 32.6239 80.4891 27.918C80.4891 23.2121 79.0513 19.2942 76.3718 16.5482C73.6897 13.7996 69.8636 12.3281 65.2898 12.3281ZM65.2898 20.9297C66.6821 20.9297 67.8284 21.5395 68.6583 22.6809C69.5079 23.8493 70.0516 25.6207 70.0516 27.918C70.0516 30.2065 69.5123 31.9727 68.6654 33.1382C67.8389 34.2758 66.6932 34.8867 65.2898 34.8867C63.8864 34.8867 62.7408 34.2758 61.9143 33.1382C61.0674 31.9727 60.5281 30.2065 60.5281 27.918C60.5281 25.6207 61.0718 23.8493 61.9214 22.6809C62.7513 21.5395 63.8976 20.9297 65.2898 20.9297Z" stroke="#DF000E" stroke-width="2"/>
</svg>
